<svg width="40" height="40" viewBox="0 0 40 40" fill="none" xmlns="http://www.w3.org/2000/svg">
<g clip-path="url(#clip0_88_5822)">
<path d="M24.0507 -1.88802e-05C24.6147 0.245314 25.2093 0.438648 25.7373 0.749314C26.3293 1.09731 26.736 1.65465 27.0093 2.28931C27.4827 3.38931 28.3187 3.94531 29.5013 4.05731C31.7587 4.26931 33.3267 6.37998 32.872 8.60931C32.6307 9.79198 32.916 10.7373 33.8333 11.544C35.54 13.048 35.544 15.6893 33.8373 17.2013C32.9227 18.0106 32.6333 18.9506 32.8693 20.1346C33.176 21.6786 32.664 22.9586 31.428 23.9226C31.1747 24.12 31.124 24.2573 31.2373 24.5546C32.6533 28.2533 34.056 31.9573 35.4613 35.66C35.4933 35.7453 35.5253 35.8307 35.5613 35.9133C35.684 36.2 35.692 36.4746 35.4547 36.7053C35.232 36.924 34.9733 36.908 34.6947 36.8066C33.5013 36.3706 32.304 35.944 31.108 35.5133C30.7187 35.3733 30.3293 35.2346 29.9147 35.0866C29.8387 35.216 29.764 35.3346 29.6973 35.4573C28.9893 36.7573 28.2867 38.0626 27.5707 39.3573C27.4427 39.588 27.2547 39.7853 27.0933 39.9986H26.6253C26.472 39.768 26.2693 39.556 26.172 39.304C24.8333 35.8106 23.5093 32.312 22.18 28.816C22.1307 28.6866 22.0787 28.508 21.976 28.4587C21.488 28.2227 20.9987 27.964 20.48 27.8266C19.7853 27.6426 19.1373 27.876 18.5 28.1947C18.0693 28.4093 17.844 28.7 17.68 29.1386C16.4107 32.5333 15.1213 35.92 13.8253 39.304C13.728 39.5573 13.5253 39.768 13.372 39.9986H12.904C12.744 39.7853 12.5547 39.588 12.4267 39.3573C11.648 37.948 10.8827 36.532 10.1 35.0946C9.96801 35.1373 9.84801 35.172 9.72935 35.2146C8.27735 35.736 6.82535 36.2573 5.37468 36.784C5.08001 36.8906 4.79335 36.9546 4.54001 36.704C4.27468 36.4413 4.34401 36.1507 4.46268 35.8386C5.88535 32.1 7.29868 28.3587 8.72801 24.6227C8.85201 24.2986 8.84668 24.1333 8.54135 23.8947C7.31868 22.94 6.82001 21.664 7.12535 20.1346C7.36135 18.9506 7.07468 18.008 6.16001 17.2C4.45468 15.6933 4.45601 13.0506 6.16135 11.5426C7.06268 10.7466 7.36535 9.81731 7.13068 8.64531C6.67201 6.35598 8.21468 4.28131 10.5333 4.04931C11.6293 3.93865 12.4533 3.44798 12.9147 2.42531C13.496 1.13731 14.4587 0.333314 15.852 0.0599811C15.8853 0.0533145 15.9147 0.0186478 15.9453 -0.00268555C16.3093 -0.00268555 16.6733 -0.00268555 17.0373 -0.00268555C17.6667 0.250648 18.2973 0.501314 18.9267 0.757314C19.644 1.04931 20.3573 1.04798 21.0747 0.757314C21.6987 0.503981 22.3293 0.253314 22.96 -1.88802e-05C23.324 -1.88802e-05 23.688 -1.88802e-05 24.052 -1.88802e-05H24.0507ZM8.26401 20.8933C8.29335 22.1973 9.26001 23.3093 10.5693 23.44C12.26 23.6093 13.436 24.4333 14.148 25.9893C14.7787 27.3666 16.3947 27.884 17.7467 27.2027C18.0707 27.0387 18.388 26.8493 18.7293 26.736C19.9053 26.3467 21.0213 26.508 22.1 27.1173C23.532 27.9253 25.1853 27.4266 25.856 25.9667C26.564 24.4266 27.736 23.616 29.4093 23.4413C30.9533 23.28 31.9693 21.8453 31.6453 20.3306C31.3053 18.736 31.728 17.412 32.9507 16.3266C34.1733 15.2413 34.1707 13.512 32.9467 12.4213C31.7253 11.3346 31.308 10.0093 31.6387 8.41331C31.7107 8.06665 31.712 7.67998 31.6413 7.33331C31.4173 6.22398 30.5333 5.41998 29.4027 5.30798C27.7293 5.14131 26.5587 4.31998 25.852 2.77998C25.2107 1.38131 23.572 0.817315 22.2333 1.56931C20.708 2.42798 19.2413 2.43598 17.732 1.55998C17.4093 1.37331 16.9933 1.27598 16.6187 1.26798C15.424 1.24398 14.5667 1.80798 14.068 2.90398C13.5147 4.12132 12.5947 4.89465 11.292 5.19465C10.9773 5.26665 10.6467 5.27065 10.3307 5.33998C8.91468 5.65065 8.04401 7.00932 8.34801 8.43998C8.66935 9.95198 8.30935 11.2546 7.16668 12.3053C5.77868 13.5826 5.78135 15.18 7.17068 16.452C8.22935 17.42 8.63468 18.628 8.39335 20.0493C8.34535 20.3306 8.30535 20.6133 8.26135 20.8946L8.26401 20.8933ZM16.496 28.768C16.3707 28.7546 16.28 28.7467 16.192 28.736C14.7613 28.56 13.644 27.8813 13.044 26.5546C12.448 25.2373 11.456 24.668 10.0373 24.6733C8.71735 28.1533 7.39335 31.64 6.04801 35.1866C6.19601 35.1466 6.25868 35.1346 6.31735 35.1133C7.56268 34.6653 8.80535 34.2133 10.052 33.7693C10.5093 33.6053 10.752 33.6987 10.9893 34.1227C11.256 34.5986 11.512 35.0813 11.772 35.5613C12.1813 36.312 12.5893 37.0626 13.036 37.8813C14.2053 34.804 15.3467 31.7973 16.496 28.7706V28.768ZM33.9573 35.212C32.5947 31.624 31.2707 28.1346 29.956 24.6733C28.4693 24.6653 27.4827 25.2986 26.9053 26.6533C26.5373 27.5186 25.8267 28.1173 24.9373 28.4453C24.4853 28.612 24.0027 28.6973 23.5173 28.824C24.652 31.8093 25.792 34.808 26.9587 37.88C27.6267 36.652 28.248 35.512 28.8693 34.3706C29.2813 33.6146 29.3947 33.5693 30.1893 33.856C31.408 34.296 32.628 34.7333 33.9573 35.212Z" fill="white"/>
<path d="M10.64 14.3693C10.6427 9.18934 14.8427 4.99334 20.02 5.00001C25.168 5.00667 29.3627 9.22134 29.3533 14.3773C29.3427 19.56 25.152 23.7467 19.9707 23.7493C14.8347 23.752 10.6387 19.5333 10.64 14.3693ZM11.8893 14.3827C11.8707 18.8227 15.4987 22.4693 19.964 22.5C24.4 22.5307 28.08 18.8893 28.104 14.4453C28.1293 9.96801 24.5147 6.26401 20.1053 6.25067C15.5387 6.23601 11.908 9.82934 11.888 14.3813L11.8893 14.3827Z" fill="white"/>
<path d="M25.4827 13.0493C25.4213 13.14 25.3253 13.3387 25.1787 13.4867C24.564 14.104 23.9253 14.6973 23.3187 15.3227C23.208 15.436 23.1413 15.664 23.164 15.8227C23.2893 16.6973 23.4427 17.568 23.5987 18.4387C23.652 18.7333 23.612 18.9853 23.3587 19.1667C23.1027 19.352 22.8507 19.288 22.592 19.1493C21.8253 18.7387 21.0507 18.3453 20.2867 17.928C20.0813 17.816 19.9227 17.812 19.7147 17.9253C18.952 18.3427 18.176 18.7347 17.4093 19.144C17.1387 19.2893 16.876 19.356 16.6107 19.1507C16.3627 18.9587 16.344 18.7013 16.396 18.412C16.5493 17.5547 16.6787 16.6933 16.8413 15.8373C16.8867 15.6013 16.836 15.4533 16.6653 15.292C16.0427 14.7027 15.4373 14.0933 14.8173 13.5C14.584 13.276 14.4333 13.0347 14.5453 12.7067C14.6533 12.388 14.928 12.3133 15.2227 12.2707C16.084 12.1493 16.9453 12.0333 17.8027 11.8867C17.948 11.8613 18.1253 11.728 18.1947 11.596C18.592 10.8373 18.968 10.0653 19.3387 9.29332C19.4787 9.00132 19.6627 8.78132 20.0067 8.78665C20.332 8.79199 20.5107 9.00265 20.6453 9.27999C21.0173 10.052 21.408 10.816 21.7773 11.5893C21.872 11.7867 21.988 11.8733 22.2107 11.9013C23.0733 12.0107 23.932 12.1467 24.792 12.2747C25.2533 12.3427 25.4827 12.5587 25.4813 13.0493H25.4827ZM19.9973 10.792C19.6747 11.4467 19.392 12.0133 19.116 12.584C18.9813 12.8627 18.784 13.0253 18.464 13.0667C17.8227 13.148 17.1853 13.256 16.588 13.3467C17.0107 13.8013 17.4227 14.264 17.8573 14.7053C18.104 14.956 18.2253 15.208 18.1493 15.5747C18.02 16.196 17.9347 16.8267 17.82 17.5107C18.4107 17.2013 18.9653 16.9293 19.5013 16.624C19.8427 16.4293 20.148 16.428 20.4893 16.62C21.028 16.9227 21.5827 17.1973 22.172 17.5067C22.0613 16.8373 21.9813 16.2187 21.8493 15.612C21.7627 15.2147 21.8933 14.9467 22.1653 14.6773C22.596 14.2507 22.9973 13.7947 23.4133 13.3467C22.82 13.256 22.196 13.1467 21.5667 13.072C21.216 13.0307 21.0053 12.856 20.8587 12.548C20.5933 11.9867 20.312 11.4333 19.9947 10.7907L19.9973 10.792Z" fill="white"/>
</g>
<defs>
<clipPath id="clip0_88_5822">
<rect width="40" height="40" fill="white"/>
</clipPath>
</defs>
</svg>
