<svg width="40" height="40" viewBox="0 0 40 40" fill="none" xmlns="http://www.w3.org/2000/svg">
<g clip-path="url(#clip0_539_4786)">
<path d="M21.4001 0C21.4401 0.0293333 21.4801 0.0613333 21.5227 0.088C21.8694 0.317333 22.0134 0.642667 21.9174 0.981333C21.8147 1.34267 21.5227 1.55867 21.0907 1.56C19.1161 1.564 17.1401 1.56133 15.1654 1.56133C14.1934 1.56133 13.2201 1.56133 12.2241 1.56133V14.584C13.8041 14.868 15.0654 15.6427 15.9574 16.9787C17.3294 19.0333 17.2067 21.7547 15.5201 23.552C14.1227 25.0413 14.3054 28.012 15.6134 29.4547C16.0361 29.9213 16.5561 30.168 17.1974 30.1587C18.0814 30.1467 18.9641 30.1533 19.8481 30.156C20.4881 30.1587 20.7747 30.4453 20.7747 31.0893C20.7774 32.704 20.7774 34.3187 20.7747 35.9333C20.7747 36.596 20.4894 36.8707 19.8147 36.8733C19.3747 36.876 18.9334 36.8733 18.4654 36.8733V38.4133H36.3387V1.56267C36.2134 1.56267 36.0761 1.56267 35.9387 1.56267C33.4041 1.56267 30.8707 1.56267 28.3361 1.56267C27.7654 1.56267 27.4134 1.26267 27.4054 0.789333C27.4001 0.396 27.6587 0.188 27.9494 0.00133333H37.3841C37.8067 0.230667 37.9387 0.584 37.9374 1.06267C37.9281 13.688 37.9281 26.3133 37.9374 38.9387C37.9374 39.4187 37.8054 39.7707 37.3841 40.0013H4.94806C4.56539 39.7853 4.36273 39.476 4.39739 39.0173C4.42006 38.72 4.40139 38.4187 4.40139 38.1187C4.40139 37.708 4.40139 37.2973 4.40139 36.876C4.10539 36.876 3.87206 36.876 3.63873 36.876C3.40539 36.876 3.17073 36.88 2.93739 36.876C2.37073 36.8653 2.06539 36.5707 2.06406 36.0067C2.05873 34.3533 2.05873 32.7 2.06406 31.0467C2.06539 30.4587 2.36673 30.164 2.95739 30.16C3.72406 30.1547 4.49073 30.1427 5.25739 30.164C6.00139 30.1853 6.59339 29.8893 7.08539 29.36C8.42806 27.916 8.82006 25.1733 7.26006 23.4827C5.56806 21.6493 5.52139 18.832 6.98806 16.8067C7.88539 15.568 9.10806 14.844 10.6387 14.5827V14.1093C10.6387 9.76133 10.6441 5.412 10.6307 1.064C10.6294 0.584 10.7614 0.230667 11.1854 0.00133333C14.5907 0 17.9961 0 21.4001 0ZM14.1321 30.1427C14.0667 30.0347 14.0361 29.98 14.0014 29.9267C12.6307 27.852 12.5081 24.332 14.4414 22.4173C15.0387 21.8253 15.2774 21.0147 15.3107 20.1707C15.3814 18.4053 14.2921 16.8387 12.6267 16.288C10.9734 15.7413 9.15072 16.3747 8.17206 17.8347C7.19872 19.2867 7.32539 21.1733 8.48006 22.5427C8.69739 22.8 8.92806 23.0573 9.09072 23.3493C10.3307 25.5733 10.0267 27.7173 8.72672 29.8013C8.66139 29.9067 8.59072 30.008 8.50272 30.1427H14.1334H14.1321ZM3.64006 35.284H19.1854V31.7387H3.64006V35.284ZM16.8481 38.4213V36.9067H5.98539V38.4213H16.8481Z" fill="white"/>
<path d="M24.9094 0C24.9721 0.0426667 25.0347 0.0853333 25.0947 0.130667C25.3961 0.352 25.5294 0.645333 25.4121 1.00933C25.2961 1.36667 25.0334 1.564 24.6561 1.556C24.2961 1.548 24.0454 1.35067 23.9374 1.00933C23.8214 0.645333 23.9534 0.352 24.2547 0.130667C24.3161 0.0853333 24.3787 0.044 24.4414 0.00133333C24.5974 0.00133333 24.7534 0.00133333 24.9094 0.00133333V0Z" fill="white"/>
<path d="M27.804 24.3746C30.8053 24.3786 33.252 26.8346 33.252 29.8426C33.252 32.8666 30.788 35.3226 27.764 35.3106C24.7693 35.3 22.3293 32.8333 22.336 29.8213C22.3426 26.8173 24.7986 24.3693 27.804 24.3733V24.3746ZM31.6906 29.8546C31.6959 27.7093 29.952 25.948 27.8146 25.9386C25.6733 25.9293 23.9093 27.672 23.896 29.812C23.8826 31.9746 25.6373 33.748 27.792 33.7493C29.9306 33.7493 31.6866 31.9973 31.6906 29.856V29.8546Z" fill="white"/>
<path d="M24.244 11.4068C21.6213 11.4068 18.9987 11.4068 16.376 11.4068C16.2467 11.4068 16.1147 11.4148 15.9867 11.3948C15.592 11.3348 15.3093 10.9935 15.32 10.6041C15.3307 10.2308 15.6107 9.91079 15.9893 9.85612C16.1173 9.83745 16.248 9.84545 16.3787 9.84545C21.6493 9.84545 26.9213 9.84545 32.192 9.84545C32.3093 9.84545 32.4267 9.83879 32.5427 9.85212C32.9427 9.89745 33.2387 10.2201 33.248 10.6081C33.2573 11.0108 32.9547 11.3535 32.5387 11.4001C32.4107 11.4148 32.2787 11.4068 32.1493 11.4068C29.5133 11.4068 26.8787 11.4068 24.2427 11.4068H24.244Z" fill="white"/>
<path d="M26.6107 16.0934C24.7547 16.0934 22.8987 16.0934 21.0427 16.0934C20.9254 16.0934 20.808 16.1001 20.6934 16.0854C20.2947 16.0347 20.004 15.7067 20.0014 15.3174C19.9987 14.9294 20.288 14.5961 20.684 14.5414C20.7867 14.5267 20.8907 14.5321 20.9947 14.5321C24.7454 14.5321 28.496 14.5321 32.248 14.5321C32.352 14.5321 32.4574 14.5267 32.5587 14.5401C32.956 14.5907 33.248 14.9201 33.2507 15.3081C33.2534 15.6961 32.964 16.0307 32.568 16.0841C32.44 16.1014 32.3094 16.0934 32.1787 16.0934C30.3227 16.0934 28.4667 16.0934 26.6107 16.0934Z" fill="white"/>
<path d="M26.596 20.7812C24.7533 20.7812 22.9093 20.7812 21.0666 20.7812C20.9373 20.7812 20.8053 20.7892 20.6773 20.7706C20.2813 20.7146 19.9946 20.3786 20 19.9906C20.0053 19.6012 20.2973 19.2772 20.696 19.2266C20.7986 19.2132 20.904 19.2186 21.0066 19.2186C24.744 19.2186 28.4826 19.2186 32.22 19.2186C32.2853 19.2186 32.3493 19.2172 32.4146 19.2186C32.9106 19.2359 33.2533 19.5612 33.248 20.0079C33.2426 20.4412 32.9093 20.7572 32.4346 20.7786C32.3306 20.7826 32.2266 20.7799 32.1226 20.7799C30.28 20.7799 28.436 20.7799 26.5933 20.7799L26.596 20.7812Z" fill="white"/>
<path d="M19.612 5.15608C20.728 5.15608 21.8427 5.15475 22.9587 5.15608C23.528 5.15608 23.884 5.45208 23.892 5.92142C23.9013 6.40542 23.536 6.71608 22.948 6.71608C20.7173 6.71742 18.4853 6.71742 16.2547 6.71608C15.6827 6.71608 15.3307 6.42142 15.3213 5.94942C15.312 5.46408 15.6747 5.15608 16.2653 5.15475C17.3813 5.15208 18.496 5.15475 19.612 5.15475V5.15608Z" fill="white"/>
</g>
<defs>
<clipPath id="clip0_539_4786">
<rect width="40" height="40" fill="white"/>
</clipPath>
</defs>
</svg>
