<svg width="161" height="40" viewBox="0 0 161 40" fill="none" xmlns="http://www.w3.org/2000/svg">
<g clip-path="url(#clip0_16_333)">
<path d="M96.1057 21.8951C96.1057 17.5073 94.1605 15.3062 90.2701 15.3062H84.8V28.4548H90.0653C94.0874 28.4548 96.1057 26.2683 96.1057 21.8951ZM91.5571 26.1808C91.2061 26.968 90.5626 27.3761 89.6412 27.3761H88.632V16.3994H89.6412C90.5626 16.3994 91.2061 16.793 91.5571 17.5802C91.9082 18.3674 92.0837 19.8105 92.0837 21.8805C92.0837 23.9505 91.9082 25.3936 91.5571 26.1808Z" fill="#B48E69"/>
<path d="M109.122 27.1429H103.594V21.9242H107.572V20.5977H103.594V16.6181H108.318V15.3062H99.762V28.4548H109.122V27.1429Z" fill="#B48E69"/>
<path d="M121.554 27.1429H116.143V15.3062H112.311V28.4548H121.554V27.1429Z" fill="#B48E69"/>
<path d="M132.992 24.1254C132.992 26.2099 132.129 27.2449 130.388 27.2449C129.496 27.2449 128.882 27.0262 128.546 26.6035C128.209 26.1808 128.048 25.3936 128.048 24.2274V15.277H124.216V24.1108C124.216 27.1429 125.884 28.6443 129.233 28.6443C132.582 28.6443 134.264 27.1283 134.264 24.1108V15.277H132.977V24.1108L132.992 24.1254Z" fill="#B48E69"/>
<path d="M147.91 15.3062H146.228L143.668 19.5919L141.314 15.3062H137.072L141.05 22.449L137.321 28.4548H139.047L141.855 23.8338L144.4 28.4548H148.656L144.444 20.933L147.91 15.3062Z" fill="#B48E69"/>
<path d="M155.472 27.1429V21.9242H159.45V20.5977H155.472V16.6181H160.196V15.3062H151.64V28.4548H161V27.1429H155.472Z" fill="#B48E69"/>
<path d="M36.2864 0L18.9988 19.621L0 15.3061L0.936046 20.9767L19.3791 23.9359L36.2864 8.77551L53.1791 23.9359L71.6222 20.9767L72.5582 15.3061L53.5594 19.621L36.2864 0Z" fill="url(#paint0_linear_16_333)"/>
<path d="M36.2863 17.1283L19.7446 28.105L1.81348 26.2245L2.61789 31.1079L20.1103 32.1574L36.2863 25.0875L52.4477 32.1574L69.9401 31.1079L70.7445 26.2245L52.8134 28.105L36.2863 17.1283Z" fill="url(#paint1_linear_16_333)"/>
<path d="M36.2865 32.6676L20.4469 36.0787L3.37866 35.6559L4.0807 39.8979H20.7833L36.2865 39.8833L51.7752 39.8979H68.4778L69.1798 35.6559L52.1116 36.0787L36.2865 32.6676Z" fill="url(#paint2_linear_16_333)"/>
<path d="M85.5167 37.4198H88.5296V36.7784H85.5167V35.1166H88.7344V34.4752H84.8V39.9125H88.866V39.2566H85.5167V37.4198Z" fill="#B48E69"/>
<path d="M95.199 37.0116C94.9211 36.9096 94.5262 36.8075 94.0435 36.6909C93.5609 36.5889 93.2245 36.4722 93.049 36.3556C92.8735 36.239 92.7857 36.0787 92.7857 35.8454C92.7857 35.5976 92.9027 35.3935 93.1221 35.2478C93.3415 35.102 93.6486 35.0291 94.0582 35.0291C94.8918 35.0291 95.3452 35.3644 95.4037 36.0203H96.1058C96.0765 35.4956 95.8864 35.102 95.5061 34.8104C95.1258 34.5335 94.6286 34.3877 94.0143 34.3877C93.4 34.3877 92.9612 34.5335 92.6102 34.8104C92.2592 35.0874 92.0837 35.4518 92.0837 35.8892C92.0837 36.2827 92.2153 36.5889 92.4932 36.8221C92.7711 37.0553 93.2099 37.2448 93.8388 37.376C94.4677 37.5072 94.9064 37.6384 95.1551 37.7842C95.4037 37.9154 95.5354 38.1341 95.5354 38.4402C95.5354 38.7463 95.4184 38.9504 95.1697 39.1107C94.9211 39.2711 94.5993 39.3585 94.1898 39.3585C93.7656 39.3585 93.4 39.2565 93.0929 39.067C92.7857 38.8775 92.6248 38.5714 92.581 38.1632H91.8936C91.9082 38.7026 92.1129 39.1399 92.4932 39.4897C92.8735 39.8396 93.4439 39.9999 94.219 39.9999C94.8187 39.9999 95.3013 39.8396 95.6816 39.5335C96.0473 39.2273 96.2374 38.8338 96.2374 38.3673C96.2374 38.0029 96.135 37.7113 95.9302 37.4927C95.7255 37.274 95.4768 37.1136 95.199 37.0116Z" fill="#B48E69"/>
<path d="M99.0747 35.1166H100.859V39.9125H101.59V35.1166H103.389V34.4752H99.0747V35.1166Z" fill="#B48E69"/>
<path d="M107.923 34.4752L105.832 39.898H106.592L107.192 38.2507H109.474L110.102 39.898H110.922L108.698 34.4752H107.923ZM107.397 37.6822L108.304 35.1604L109.269 37.6822H107.397Z" fill="#B48E69"/>
<path d="M113.364 35.1166H115.148V39.9125H115.865V35.1166H117.679V34.4752H113.364V35.1166Z" fill="#B48E69"/>
<path d="M121.452 37.4198H124.45V36.7784H121.452V35.1166H124.67V34.4752H120.735V39.9125H124.787V39.2566H121.452V37.4198Z" fill="#B48E69"/>
</g>
<defs>
<linearGradient id="paint0_linear_16_333" x1="-1.71121" y1="5.45189" x2="161.054" y2="46.0841" gradientUnits="userSpaceOnUse">
<stop stop-color="#A96F44"/>
<stop offset="1" stop-color="#F2ECB6"/>
</linearGradient>
<linearGradient id="paint1_linear_16_333" x1="-4.85585" y1="18.0904" x2="157.895" y2="58.7226" gradientUnits="userSpaceOnUse">
<stop stop-color="#A96F44"/>
<stop offset="1" stop-color="#F2ECB6"/>
</linearGradient>
<linearGradient id="paint2_linear_16_333" x1="-7.06411" y1="26.9387" x2="155.686" y2="67.5709" gradientUnits="userSpaceOnUse">
<stop stop-color="#A96F44"/>
<stop offset="1" stop-color="#F2ECB6"/>
</linearGradient>
<clipPath id="clip0_16_333">
<rect width="161" height="40" fill="white"/>
</clipPath>
</defs>
</svg>
