<svg width="20" height="20" viewBox="0 0 20 20" fill="none" xmlns="http://www.w3.org/2000/svg">
<path d="M19.9847 10.234C19.866 10.6933 19.544 11.0187 19.244 11.3573C17.9547 12.8127 16.51 14.0807 14.818 15.0513C13.6474 15.7227 12.4087 16.2073 11.0654 16.3907C9.73402 16.5727 8.43736 16.404 7.17402 15.9607C5.31002 15.3067 3.70736 14.224 2.27469 12.8867C1.62469 12.2807 1.02469 11.6187 0.428025 10.9587C-0.129975 10.3407 -0.113975 9.66534 0.428025 9.02934C1.73402 7.49401 3.20402 6.14601 4.93069 5.09401C6.11069 4.37468 7.36669 3.84668 8.74069 3.63468C10.2787 3.39734 11.768 3.59534 13.212 4.16268C14.9794 4.85801 16.4927 5.94468 17.866 7.23668C18.3674 7.70868 18.836 8.21534 19.3127 8.71268C19.6054 9.01734 19.8754 9.34068 19.986 9.76468V10.2333L19.9847 10.234ZM9.99869 4.76401C8.93069 4.76934 7.91402 5.01534 6.94202 5.44401C4.69202 6.43668 2.90869 8.02668 1.32602 9.87068C1.23802 9.97334 1.25936 10.0467 1.33936 10.14C2.74936 11.79 4.33802 13.2247 6.27402 14.2367C7.32669 14.7867 8.43736 15.1507 9.62936 15.2213C10.792 15.29 11.9047 15.0513 12.968 14.5953C15.2667 13.6087 17.0794 11.992 18.6887 10.118C18.7707 10.0227 18.7494 9.94934 18.6754 9.86334C17.24 8.18201 15.6214 6.72201 13.6394 5.70934C12.498 5.12601 11.2927 4.76868 9.99802 4.76401H9.99869Z" fill="#6F80B1"/>
<path d="M10.0233 5.69067C12.4067 5.708 14.3153 7.63734 14.3027 10.0167C14.29 12.4087 12.3513 14.3253 9.96599 14.304C7.58932 14.2827 5.68199 12.3373 5.70666 9.95933C5.73132 7.582 7.66199 5.67334 10.0233 5.69067ZM13.08 9.99934C13.08 8.306 11.6953 6.918 10.006 6.91734C8.31599 6.91734 6.93066 8.304 6.92999 9.99667C6.92932 11.6887 8.31532 13.0793 10.004 13.0793C11.6927 13.0793 13.0807 11.6907 13.0807 9.99934H13.08Z" fill="#6F80B1"/>
</svg>
