<svg width="40" height="40" viewBox="0 0 40 40" fill="none" xmlns="http://www.w3.org/2000/svg">
<g clip-path="url(#clip0_539_4755)">
<path d="M24.0506 -1.88802e-05C24.6147 0.245314 25.2093 0.438648 25.7373 0.749314C26.3293 1.09731 26.736 1.65465 27.0093 2.28931C27.4827 3.38931 28.3186 3.94531 29.5013 4.05731C31.7586 4.26931 33.3266 6.37998 32.872 8.60931C32.6306 9.79198 32.916 10.7373 33.8333 11.544C35.54 13.048 35.544 15.6893 33.8373 17.2013C32.9226 18.0106 32.6333 18.9506 32.8693 20.1346C33.176 21.6786 32.664 22.9586 31.428 23.9226C31.1747 24.12 31.124 24.2573 31.2373 24.5546C32.6533 28.2533 34.056 31.9573 35.4613 35.66C35.4933 35.7453 35.5253 35.8307 35.5613 35.9133C35.684 36.2 35.692 36.4746 35.4547 36.7053C35.232 36.924 34.9733 36.908 34.6946 36.8066C33.5013 36.3706 32.304 35.944 31.108 35.5133C30.7186 35.3733 30.3293 35.2346 29.9146 35.0866C29.8386 35.216 29.764 35.3346 29.6973 35.4573C28.9893 36.7573 28.2866 38.0626 27.5707 39.3573C27.4426 39.588 27.2546 39.7853 27.0933 39.9986H26.6253C26.472 39.768 26.2693 39.556 26.172 39.304C24.8333 35.8106 23.5093 32.312 22.18 28.816C22.1306 28.6866 22.0786 28.508 21.976 28.4587C21.488 28.2227 20.9986 27.964 20.48 27.8266C19.7853 27.6426 19.1373 27.876 18.5 28.1947C18.0693 28.4093 17.844 28.7 17.68 29.1386C16.4106 32.5333 15.1213 35.92 13.8253 39.304C13.728 39.5573 13.5253 39.768 13.372 39.9986H12.904C12.744 39.7853 12.5546 39.588 12.4266 39.3573C11.648 37.948 10.8826 36.532 10.1 35.0946C9.96798 35.1373 9.84798 35.172 9.72932 35.2146C8.27732 35.736 6.82532 36.2573 5.37465 36.784C5.07998 36.8906 4.79332 36.9546 4.53998 36.704C4.27465 36.4413 4.34398 36.1507 4.46265 35.8386C5.88532 32.1 7.29865 28.3587 8.72798 24.6227C8.85198 24.2986 8.84665 24.1333 8.54132 23.8947C7.31865 22.94 6.81998 21.664 7.12532 20.1346C7.36132 18.9506 7.07465 18.008 6.15998 17.2C4.45465 15.6933 4.45598 13.0506 6.16132 11.5426C7.06265 10.7466 7.36532 9.81731 7.13065 8.64531C6.67198 6.35598 8.21465 4.28131 10.5333 4.04931C11.6293 3.93865 12.4533 3.44798 12.9146 2.42531C13.496 1.13731 14.4586 0.333314 15.852 0.0599811C15.8853 0.0533145 15.9146 0.0186478 15.9453 -0.00268555C16.3093 -0.00268555 16.6733 -0.00268555 17.0373 -0.00268555C17.6666 0.250648 18.2973 0.501314 18.9266 0.757314C19.644 1.04931 20.3573 1.04798 21.0746 0.757314C21.6986 0.503981 22.3293 0.253314 22.96 -1.88802e-05C23.324 -1.88802e-05 23.688 -1.88802e-05 24.052 -1.88802e-05H24.0506ZM8.26398 20.8933C8.29332 22.1973 9.25998 23.3093 10.5693 23.44C12.26 23.6093 13.436 24.4333 14.148 25.9893C14.7786 27.3666 16.3946 27.884 17.7466 27.2027C18.0707 27.0387 18.388 26.8493 18.7293 26.736C19.9053 26.3467 21.0213 26.508 22.1 27.1173C23.532 27.9253 25.1853 27.4266 25.856 25.9667C26.564 24.4266 27.736 23.616 29.4093 23.4413C30.9533 23.28 31.9693 21.8453 31.6453 20.3306C31.3053 18.736 31.728 17.412 32.9507 16.3266C34.1733 15.2413 34.1707 13.512 32.9467 12.4213C31.7253 11.3346 31.308 10.0093 31.6386 8.41331C31.7106 8.06665 31.712 7.67998 31.6413 7.33331C31.4173 6.22398 30.5333 5.41998 29.4027 5.30798C27.7293 5.14131 26.5586 4.31998 25.852 2.77998C25.2106 1.38131 23.572 0.817315 22.2333 1.56931C20.708 2.42798 19.2413 2.43598 17.732 1.55998C17.4093 1.37331 16.9933 1.27598 16.6186 1.26798C15.424 1.24398 14.5666 1.80798 14.068 2.90398C13.5146 4.12132 12.5946 4.89465 11.292 5.19465C10.9773 5.26665 10.6466 5.27065 10.3306 5.33998C8.91465 5.65065 8.04398 7.00932 8.34798 8.43998C8.66932 9.95198 8.30932 11.2546 7.16665 12.3053C5.77865 13.5826 5.78132 15.18 7.17065 16.452C8.22932 17.42 8.63465 18.628 8.39332 20.0493C8.34532 20.3306 8.30532 20.6133 8.26132 20.8946L8.26398 20.8933ZM16.496 28.768C16.3706 28.7546 16.28 28.7467 16.192 28.736C14.7613 28.56 13.644 27.8813 13.044 26.5546C12.448 25.2373 11.456 24.668 10.0373 24.6733C8.71732 28.1533 7.39332 31.64 6.04798 35.1866C6.19598 35.1466 6.25865 35.1346 6.31732 35.1133C7.56265 34.6653 8.80532 34.2133 10.052 33.7693C10.5093 33.6053 10.752 33.6987 10.9893 34.1227C11.256 34.5986 11.512 35.0813 11.772 35.5613C12.1813 36.312 12.5893 37.0626 13.036 37.8813C14.2053 34.804 15.3466 31.7973 16.496 28.7706V28.768ZM33.9573 35.212C32.5946 31.624 31.2706 28.1346 29.956 24.6733C28.4693 24.6653 27.4826 25.2986 26.9053 26.6533C26.5373 27.5186 25.8266 28.1173 24.9373 28.4453C24.4853 28.612 24.0026 28.6973 23.5173 28.824C24.652 31.8093 25.792 34.808 26.9587 37.88C27.6266 36.652 28.248 35.512 28.8693 34.3706C29.2813 33.6146 29.3946 33.5693 30.1893 33.856C31.408 34.296 32.628 34.7333 33.9573 35.212Z" fill="white"/>
<path d="M10.64 14.3693C10.6427 9.18934 14.8427 4.99334 20.02 5.00001C25.168 5.00667 29.3627 9.22134 29.3533 14.3773C29.3427 19.56 25.152 23.7467 19.9707 23.7493C14.8347 23.752 10.6387 19.5333 10.64 14.3693ZM11.8893 14.3827C11.8707 18.8227 15.4987 22.4693 19.964 22.5C24.4 22.5307 28.08 18.8893 28.104 14.4453C28.1293 9.96801 24.5147 6.26401 20.1053 6.25067C15.5387 6.23601 11.908 9.82934 11.888 14.3813L11.8893 14.3827Z" fill="white"/>
<path d="M25.4827 13.0494C25.4214 13.14 25.3254 13.3387 25.1787 13.4867C24.564 14.104 23.9254 14.6974 23.3187 15.3227C23.208 15.436 23.1414 15.664 23.164 15.8227C23.2894 16.6974 23.4427 17.568 23.5987 18.4387C23.652 18.7334 23.612 18.9854 23.3587 19.1667C23.1027 19.352 22.8507 19.288 22.592 19.1494C21.8254 18.7387 21.0507 18.3454 20.2867 17.928C20.0814 17.816 19.9227 17.812 19.7147 17.9254C18.952 18.3427 18.176 18.7347 17.4094 19.144C17.1387 19.2894 16.876 19.356 16.6107 19.1507C16.3627 18.9587 16.344 18.7014 16.396 18.412C16.5494 17.5547 16.6787 16.6934 16.8414 15.8374C16.8867 15.6014 16.836 15.4534 16.6654 15.292C16.0427 14.7027 15.4374 14.0934 14.8174 13.5C14.584 13.276 14.4334 13.0347 14.5454 12.7067C14.6534 12.388 14.928 12.3134 15.2227 12.2707C16.084 12.1494 16.9454 12.0334 17.8027 11.8867C17.948 11.8614 18.1254 11.728 18.1947 11.596C18.592 10.8374 18.968 10.0654 19.3387 9.29338C19.4787 9.00138 19.6627 8.78138 20.0067 8.78672C20.332 8.79205 20.5107 9.00272 20.6454 9.28005C21.0174 10.052 21.408 10.816 21.7774 11.5894C21.872 11.7867 21.988 11.8734 22.2107 11.9014C23.0734 12.0107 23.932 12.1467 24.792 12.2747C25.2534 12.3427 25.4827 12.5587 25.4814 13.0494H25.4827ZM19.9974 10.792C19.6747 11.4467 19.392 12.0134 19.116 12.584C18.9814 12.8627 18.784 13.0254 18.464 13.0667C17.8227 13.148 17.1854 13.256 16.588 13.3467C17.0107 13.8014 17.4227 14.264 17.8574 14.7054C18.104 14.956 18.2254 15.208 18.1494 15.5747C18.02 16.196 17.9347 16.8267 17.82 17.5107C18.4107 17.2014 18.9654 16.9294 19.5014 16.624C19.8427 16.4294 20.148 16.428 20.4894 16.62C21.028 16.9227 21.5827 17.1974 22.172 17.5067C22.0614 16.8374 21.9814 16.2187 21.8494 15.612C21.7627 15.2147 21.8934 14.9467 22.1654 14.6774C22.596 14.2507 22.9974 13.7947 23.4134 13.3467C22.82 13.256 22.196 13.1467 21.5667 13.072C21.216 13.0307 21.0054 12.856 20.8587 12.548C20.5934 11.9867 20.312 11.4334 19.9947 10.7907L19.9974 10.792Z" fill="white"/>
</g>
<defs>
<clipPath id="clip0_539_4755">
<rect width="40" height="40" fill="white"/>
</clipPath>
</defs>
</svg>
