<svg width="36" height="40" viewBox="0 0 36 40" fill="none" xmlns="http://www.w3.org/2000/svg">
<path d="M18.7868 0.0358887C19.7668 0.213222 20.7628 0.327889 21.7241 0.578555C24.0774 1.19322 26.0854 2.43322 27.7788 4.16922C29.6081 6.04522 30.8174 8.27322 31.3454 10.8412C31.5361 11.7652 31.6014 12.7146 31.7241 13.6479C32.1921 13.8039 32.7161 13.9239 33.1908 14.1492C34.6641 14.8506 35.3908 16.1039 35.4201 17.6759C35.4721 20.4799 35.4841 23.2892 35.3761 26.0919C35.3041 27.9719 33.9948 29.3106 32.1414 29.6786C31.7761 29.7506 31.6428 29.8759 31.6228 30.2652C31.5574 31.5826 31.3188 32.8692 30.7481 34.0719C29.8788 35.9026 28.3881 36.9906 26.4628 37.4426C25.1668 37.7466 23.8321 37.8839 22.4441 38.1066C22.4441 38.1679 22.4508 38.3199 22.4441 38.4692C22.3988 39.3172 21.7881 39.9426 20.9388 39.9519C19.3401 39.9692 17.7414 39.9679 16.1441 39.9519C15.2868 39.9439 14.6681 39.3399 14.6401 38.4812C14.6134 37.6252 14.6134 36.7652 14.6428 35.9092C14.6694 35.1092 15.2188 34.5066 16.0161 34.4879C17.6908 34.4492 19.3681 34.4519 21.0428 34.4879C21.7934 34.5039 22.3028 35.0492 22.4094 35.7986C22.4388 36.0026 22.4401 36.2092 22.4574 36.4612C23.6428 36.4132 24.8121 36.3266 25.9561 36.0146C26.7788 35.7892 27.5521 35.4679 28.2121 34.9146C29.3468 33.9612 29.7961 32.6679 30.0068 31.2612C30.0761 30.8026 30.1028 30.3372 30.1534 29.8252C29.6868 29.8252 29.2614 29.8306 28.8374 29.8252C28.2548 29.8172 27.9814 29.5546 27.9468 28.9759C27.9401 28.8599 27.9441 28.7426 27.9441 28.6252C27.9441 24.0386 27.9441 19.4506 27.9441 14.8639C27.9441 14.7346 27.9388 14.6039 27.9481 14.4746C27.9881 13.9346 28.2454 13.6746 28.7868 13.6572C29.2254 13.6426 29.6641 13.6546 30.1534 13.6546C30.0054 9.34122 28.2854 5.87856 24.6988 3.56389C20.3281 0.743889 15.7708 0.726555 11.3828 3.51989C7.75344 5.82922 6.01344 9.30922 5.85744 13.6532C6.30677 13.6532 6.70677 13.6492 7.10544 13.6532C7.78944 13.6612 8.06543 13.9159 8.06677 14.5866C8.0721 19.3692 8.0721 24.1506 8.06677 28.9332C8.06677 29.5666 7.78677 29.8612 7.16543 29.8426C6.02677 29.8079 4.87077 29.8372 3.75477 29.6492C2.00944 29.3546 0.821436 27.9506 0.624103 26.1746C0.578769 25.7626 0.556102 25.3452 0.554769 24.9306C0.548102 22.7346 0.524103 20.5372 0.568103 18.3426C0.582769 17.6279 0.686769 16.8826 0.921436 16.2106C1.40944 14.8146 2.5201 14.0906 3.92277 13.7732C4.0601 13.7426 4.19877 13.7146 4.23077 13.6426C4.45077 12.4079 4.5921 11.1519 4.90544 9.94122C5.5201 7.57589 6.7841 5.56522 8.53877 3.86922C10.3748 2.09456 12.5481 0.927889 15.0388 0.374555C15.7574 0.214555 16.4961 0.147889 17.2254 0.0385553C17.7454 0.0385553 18.2654 0.0385553 18.7854 0.0385553L18.7868 0.0358887ZM6.5281 15.0612C5.72144 15.1132 4.9241 15.0906 4.15744 15.2319C2.93744 15.4572 2.14677 16.2706 2.1121 17.4999C2.03477 20.2479 2.0561 22.9999 2.07344 25.7506C2.07744 26.4372 2.33477 27.0679 2.87077 27.5519C3.94677 28.5239 5.25477 28.2879 6.5281 28.3159V15.0612ZM29.4748 28.3039C30.1428 28.3039 30.7841 28.3719 31.4068 28.2906C33.0681 28.0746 33.8708 27.1519 33.9228 25.4706C33.9494 24.6132 33.9468 23.7559 33.9521 22.8986C33.9628 21.3399 33.9828 19.7812 33.9774 18.2226C33.9734 17.0359 33.6388 16.0079 32.4588 15.4679C31.5001 15.0306 30.4854 15.1826 29.4748 15.1732V28.3026V28.3039ZM16.1601 35.9999V38.4306H20.9014V35.9999H16.1601Z" fill="white"/>
</svg>
