<svg width="14" height="17" viewBox="0 0 14 17" fill="none" xmlns="http://www.w3.org/2000/svg">
<path d="M0.615045 6.90103C0.624411 3.98485 2.57894 1.4527 5.39521 0.712731C8.98268 -0.230189 12.6263 2.10213 13.2758 5.78327C13.6192 7.73155 13.154 9.49562 11.8832 11.0099C10.4064 12.7709 8.89213 14.5037 7.39345 16.249C7.1062 16.5863 6.89077 16.5831 6.6004 16.2428C5.0986 14.4943 3.59367 12.7459 2.09499 10.9943C1.13958 9.87341 0.6088 8.39034 0.615045 6.90415V6.90103ZM6.99692 15.481C7.06874 15.3998 7.12494 15.3374 7.17802 15.2749C8.52371 13.7075 9.87564 12.1433 11.2151 10.5697C12.3204 9.2677 12.7637 7.75653 12.5171 6.07051C12.0612 2.97012 9.17001 0.862599 6.06649 1.40275C3.95898 1.76805 2.48527 2.99822 1.76091 5.00895C1.03343 7.02592 1.41122 8.90239 2.77564 10.5603C3.45317 11.3815 4.16192 12.1776 4.85818 12.9863C5.56381 13.8106 6.27256 14.6317 7.00005 15.481H6.99692Z" fill="#6F80B1"/>
<path d="M9.79442 6.91976C9.76945 8.48713 8.50181 9.72979 6.9563 9.70169C5.4264 9.67671 4.18062 8.39347 4.20872 6.86669C4.2337 5.32117 5.51382 4.07539 7.04997 4.10349C8.57987 4.13159 9.82252 5.40547 9.79755 6.91664L9.79442 6.91976ZM6.9844 8.89927C8.10529 8.89927 8.98888 8.02192 8.99201 6.90103C8.99201 5.79888 8.10529 4.91216 6.99689 4.90903C5.9041 4.90903 5.01426 5.79263 5.01114 6.88854C5.00489 8.00006 5.88537 8.89615 6.9844 8.89927Z" fill="#6F80B1"/>
</svg>
