<svg width="48" height="48" viewBox="0 0 48 48" fill="none" xmlns="http://www.w3.org/2000/svg">
<g clip-path="url(#clip0_540_13)">
<path d="M42.816 15.84C40.872 4.80001 29.952 -2.18399 19.176 0.648007C10.728 2.85601 4.872 10.464 4.848 19.2C4.824 23.664 6.408 28.128 9.288 31.488C13.776 36.744 18.288 41.976 22.8 47.232C23.664 48.24 24.312 48.264 25.176 47.256C29.688 42 34.224 36.816 38.64 31.536C42.456 26.976 43.848 21.696 42.816 15.84ZM32.376 19.248C32.304 23.952 28.512 27.696 23.88 27.6C19.272 27.528 15.552 23.688 15.624 19.104C15.696 14.472 19.536 10.728 24.144 10.8C28.728 10.896 32.472 14.712 32.4 19.248H32.376Z" fill="url(#paint0_linear_540_13)"/>
<path d="M24.144 10.8C19.536 10.728 15.696 14.472 15.624 19.104C15.552 23.688 19.272 27.528 23.88 27.6C28.512 27.696 32.304 23.952 32.376 19.248H32.4C32.472 14.712 28.728 10.896 24.144 10.8Z" fill="white"/>
</g>
<defs>
<linearGradient id="paint0_linear_540_13" x1="1.824" y1="3.79201" x2="48.624" y2="41.136" gradientUnits="userSpaceOnUse">
<stop stop-color="#353A5F"/>
<stop offset="1" stop-color="#9EBAF3"/>
</linearGradient>
<clipPath id="clip0_540_13">
<rect width="48" height="48" fill="white"/>
</clipPath>
</defs>
</svg>
