<svg width="40" height="40" viewBox="0 0 40 40" fill="none" xmlns="http://www.w3.org/2000/svg">
<g clip-path="url(#clip0_539_4762)">
<path d="M18.3555 0.0424026C19.2 0.171545 20.0526 0.261831 20.888 0.434403C27.7235 1.84926 33.1429 7.52583 34.2675 14.4241C34.5303 16.0367 34.5977 17.6515 34.3566 19.2721C34.3246 19.4881 34.3989 19.591 34.5795 19.7018C37.5452 21.519 39.3246 24.143 39.8526 27.5853C40.6823 32.9944 37.0286 38.3647 31.6709 39.6493C26.9806 40.7738 22.2195 38.7853 19.728 34.6561C19.616 34.4698 19.5326 34.3315 19.2583 34.367C15.5806 34.8435 12.112 34.1521 8.90174 32.3315C4.3486 29.7475 1.51546 25.8573 0.388598 20.743C0.244598 20.0858 0.195455 19.4093 0.100598 18.7407C0.0823124 18.615 0.0537409 18.4904 0.0308838 18.3658C0.0308838 17.6378 0.0308838 16.9098 0.0308838 16.183C0.0617409 15.9407 0.0937409 15.6984 0.122312 15.4561C0.552027 11.7487 1.9886 8.48469 4.5006 5.72355C7.10631 2.8584 10.3212 1.04812 14.1395 0.341831C14.8126 0.21726 15.4949 0.140688 16.1726 0.0412598C16.9006 0.0412598 17.6286 0.0412598 18.3555 0.0412598V0.0424026ZM32.5737 18.743C33.2446 13.9087 30.9749 7.10526 24.4812 3.65383C18.288 0.362403 10.8172 1.65155 5.95774 6.80697C1.28688 11.7635 0.510884 19.4195 4.0926 25.2847C7.8286 31.4013 14.496 33.2287 18.7292 32.5693C17.5155 28.343 18.2549 24.5293 21.3943 21.3944C24.5337 18.2595 28.3486 17.5258 32.5726 18.743H32.5737ZM19.9932 29.0538C19.9852 34.0527 24.0446 38.135 29.0435 38.1544C34.0229 38.1738 38.1269 34.0893 38.144 29.0961C38.1612 24.1098 34.0777 20.0093 29.0869 20.0024C24.0835 19.9955 20.0012 24.0584 19.9932 29.0538Z" fill="white"/>
<path d="M18.184 11.8264C18.184 13.5544 18.1771 15.2813 18.1886 17.0093C18.1909 17.439 18.0663 17.7784 17.7554 18.0858C16.0389 19.7853 14.3349 21.4984 12.6251 23.2058C12.5337 23.2973 12.4423 23.3933 12.336 23.4664C11.9829 23.7133 11.4949 23.6653 11.192 23.3635C10.8869 23.0595 10.8343 22.5795 11.0811 22.2218C11.1691 22.095 11.2823 21.9841 11.392 21.8744C12.9429 20.3213 14.4914 18.7647 16.0526 17.2218C16.2731 17.0047 16.3669 16.7887 16.3657 16.4755C16.3543 13.2275 16.3589 9.98069 16.36 6.73269C16.36 6.56469 16.3611 6.39326 16.3897 6.22869C16.4629 5.80469 16.8046 5.51211 17.2251 5.49497C17.6571 5.47783 18.0194 5.72697 18.128 6.14297C18.1726 6.31554 18.1806 6.50183 18.1817 6.6824C18.1851 8.39669 18.184 10.1121 18.184 11.8264Z" fill="white"/>
<path d="M29.968 23.6457C30.6195 23.6457 31.2412 23.6252 31.8595 23.6526C32.3418 23.6743 32.6812 24.056 32.6938 24.5177C32.7052 24.9554 32.392 25.3406 31.9406 25.4286C31.8149 25.4526 31.6823 25.4503 31.5532 25.4503C30.5532 25.4526 29.5532 25.4423 28.5532 25.4583C27.8983 25.4697 27.376 25.9532 27.264 26.6012C27.16 27.2057 27.52 27.8503 28.1143 28.0629C28.3292 28.1394 28.5692 28.1554 28.8 28.1726C29.2526 28.2046 29.7166 28.1612 30.1566 28.2492C31.6172 28.5394 32.6503 29.7863 32.6938 31.248C32.7372 32.7074 31.7715 34.0172 30.3326 34.3863C30.0183 34.4674 29.936 34.5932 29.968 34.8834C29.9886 35.0754 29.9806 35.2732 29.9669 35.4674C29.9292 35.9806 29.5395 36.3349 29.04 36.3234C28.5555 36.312 28.1943 35.96 28.1703 35.4549C28.1566 35.16 28.168 34.8629 28.168 34.5132C27.5349 34.5132 26.9418 34.5223 26.3498 34.5097C25.8538 34.4994 25.4926 34.1669 25.4492 33.712C25.3943 33.1486 25.7875 32.7166 26.3829 32.712C27.4218 32.7029 28.4606 32.7212 29.4995 32.704C30.4286 32.688 31.048 31.8869 30.8332 31.0092C30.688 30.4126 30.168 30.0057 29.5246 29.9829C29.032 29.9646 28.5315 29.9954 28.0503 29.9143C26.584 29.6674 25.496 28.4172 25.4469 26.9794C25.3932 25.4252 26.344 24.1223 27.8355 23.752C28.112 23.6834 28.1943 23.5692 28.1692 23.3052C28.1498 23.0994 28.1589 22.8892 28.1715 22.6823C28.2012 22.1886 28.5749 21.824 29.0515 21.8149C29.5166 21.8057 29.928 22.1692 29.9646 22.6526C29.9875 22.9612 29.9692 23.2732 29.9692 23.6446L29.968 23.6457Z" fill="white"/>
</g>
<defs>
<clipPath id="clip0_539_4762">
<rect width="40" height="40" fill="white"/>
</clipPath>
</defs>
</svg>
