<svg width="16" height="16" viewBox="0 0 16 16" fill="none" xmlns="http://www.w3.org/2000/svg">
<path fill-rule="evenodd" clip-rule="evenodd" d="M3.77193 1.13116C3.92732 1.03951 4.13917 0.939941 4.37007 0.939941H4.38869L4.40726 0.941326C4.62911 0.95787 4.84452 1.02352 5.03789 1.13353C5.23126 1.24355 5.39776 1.39516 5.52534 1.57742C5.63666 1.72977 6.0715 2.35113 6.48191 3.02359C6.71392 3.40374 6.94893 3.81773 7.11957 4.18949C7.20469 4.37493 7.27915 4.56131 7.32828 4.73499C7.37378 4.89583 7.41462 5.10244 7.37947 5.30367C7.28687 5.82839 6.91576 6.13898 6.52603 6.46441C6.50121 6.48513 6.47632 6.50591 6.45142 6.52682C6.36796 6.5972 6.35539 6.69139 6.38358 6.75649C6.41604 6.83145 6.45035 6.90561 6.4865 6.97891L6.48762 6.98119C7.02514 8.08529 7.91721 8.97737 9.02131 9.51489L9.02344 9.51593C9.09762 9.55248 9.17268 9.58717 9.24855 9.61996C9.31293 9.64778 9.4051 9.63497 9.47304 9.55382C9.49403 9.52885 9.51548 9.50318 9.53627 9.47831C9.86288 9.08753 10.1722 8.71749 10.6944 8.6241C10.8963 8.58683 11.1031 8.62569 11.2646 8.67021C11.4394 8.71837 11.6264 8.79225 11.812 8.8769C12.184 9.04658 12.5973 9.28139 12.9765 9.51357C13.6679 9.93678 14.2942 10.3812 14.4252 10.4771C14.6068 10.6046 14.7578 10.7708 14.8674 10.9638C14.9769 11.1567 15.0422 11.3716 15.0586 11.5929L15.0599 11.6113V11.6298C15.0599 11.8607 14.9604 12.0725 14.8688 12.2279C14.7693 12.3965 14.6359 12.5695 14.4892 12.7374C14.1946 13.0744 13.8067 13.4354 13.4139 13.7636C13.0198 14.0929 12.6076 14.4001 12.2577 14.628C12.0836 14.7414 11.917 14.8403 11.7709 14.913C11.698 14.9492 11.6226 14.9827 11.5487 15.0081C11.4827 15.0309 11.3824 15.0599 11.2708 15.0599C11.1267 15.0599 8.1959 14.9784 4.58286 11.427L4.57675 11.421C1.02152 7.80458 0.939941 4.87333 0.939941 4.72913C0.939941 4.61745 0.969039 4.51715 0.991779 4.45116C1.01722 4.37735 1.05073 4.30195 1.08694 4.2291C1.15955 4.08305 1.25851 3.91644 1.37192 3.74231C1.59976 3.3925 1.90702 2.98025 2.23628 2.58617C2.56445 2.19339 2.92549 1.80542 3.26247 1.51079C3.43036 1.36401 3.60334 1.23059 3.77193 1.13116ZM1.9419 4.76414C1.94966 4.74393 1.96252 4.71425 1.9824 4.67426C2.03143 4.57563 2.10795 4.44453 2.20985 4.28808C2.41265 3.97672 2.69541 3.5963 3.00368 3.22734C3.31302 2.85709 3.63701 2.51165 3.92069 2.26363C4.06313 2.13909 4.18438 2.04887 4.27996 1.9925C4.32935 1.96337 4.36089 1.94986 4.37679 1.94379C4.43527 1.95338 4.49169 1.9733 4.5434 2.00272C4.60795 2.03944 4.66353 2.09005 4.70611 2.15089L4.71816 2.1681L4.73162 2.18425C4.72933 2.1815 4.73858 2.19469 4.75755 2.22174C4.86001 2.36781 5.24596 2.91802 5.62833 3.54454C5.85213 3.91124 6.06397 4.28691 6.21075 4.60667C6.28433 4.76698 6.33623 4.90181 6.36604 5.00719C6.39211 5.09935 6.39297 5.13924 6.39297 5.13924C6.36969 5.26019 6.30795 5.34154 5.80839 5.76097C5.41624 6.09074 5.24708 6.64845 5.46591 7.15384C5.50476 7.24355 5.54582 7.33232 5.58907 7.42006C6.22438 8.7244 7.27834 9.77831 8.58271 10.4136C8.6714 10.4572 8.76113 10.4987 8.85182 10.5379C9.35456 10.7552 9.9108 10.5885 10.2396 10.196C10.6708 9.6829 10.746 9.63051 10.8711 9.60837L10.8766 9.60736C10.8743 9.60781 10.8711 9.60837 10.8711 9.60837L10.8688 9.60885C10.8688 9.60885 10.9068 9.60887 10.999 9.63428C11.1035 9.66307 11.2374 9.71393 11.397 9.78671C11.7152 9.9319 12.089 10.1428 12.4544 10.3664C13.1517 10.7933 13.7658 11.234 13.823 11.2751C13.826 11.2772 13.8273 11.2782 13.8273 11.2782L13.8387 11.2872L13.8506 11.2956C13.911 11.338 13.9613 11.3933 13.9977 11.4574C14.0269 11.5089 14.0466 11.5649 14.0561 11.623C14.0501 11.6389 14.0366 11.6705 14.0074 11.72C13.951 11.8155 13.8608 11.9368 13.7363 12.0792C13.4883 12.3629 13.1429 12.6869 12.7727 12.9962C12.4038 13.3045 12.0234 13.5872 11.712 13.79C11.5555 13.8919 11.4244 13.9684 11.3258 14.0175C11.2857 14.0374 11.256 14.0502 11.2358 14.058C10.9053 14.0366 8.40501 13.7803 5.28692 10.7169C2.2201 7.5958 1.96339 5.09503 1.9419 4.76414Z" fill="#B48E69"/>
</svg>
