<svg width="20" height="20" viewBox="0 0 20 20" fill="none" xmlns="http://www.w3.org/2000/svg">
<g clip-path="url(#clip0_88_5407)">
<path d="M14.0162 20H5.98491C5.96877 19.9901 5.95366 19.975 5.93595 19.9713C4.82189 19.7338 4.18491 18.9541 4.18231 17.8177C4.18022 16.952 4.18231 16.0859 4.18231 15.2203C4.18231 15.151 4.18231 15.0817 4.18231 15C3.49272 15 2.83075 15.0015 2.16877 15C0.92085 14.9963 0.0224121 14.0948 0.0208496 12.8416C0.0187663 10.9474 0.0187663 9.05257 0.0208496 7.1583C0.0224121 5.90466 0.920329 5.00465 2.16877 5.00049C2.76668 4.9984 3.36408 5.00049 3.962 5.00049C4.03022 5.00049 4.09897 5.00049 4.18231 5.00049C4.18231 4.89528 4.18231 4.8182 4.18231 4.74111C4.18387 3.8234 4.1771 2.90518 4.1896 1.98747C4.19741 1.42653 4.43439 0.958301 4.83491 0.569759C5.15783 0.256738 5.55679 0.0984049 5.98543 0.000488281C8.66252 0.000488281 11.3396 0.000488281 14.0167 0.000488281C14.0266 0.00830078 14.036 0.0202799 14.0474 0.0228841C15.2464 0.311426 15.8198 1.04059 15.8198 2.27965C15.8198 3.11299 15.8198 3.94632 15.8198 4.77965C15.8198 4.84893 15.8198 4.9182 15.8198 5.00049C15.9177 5.00049 15.9886 5.00049 16.0589 5.00049C16.6828 5.00049 17.3063 4.99476 17.9302 5.00309C18.8292 5.01507 19.6011 5.59163 19.8792 6.44736C19.9167 6.56299 19.9474 6.6807 19.9813 6.79736V13.2036C19.9709 13.2192 19.9547 13.2338 19.9511 13.251C19.7057 14.3661 18.9261 14.9994 17.7932 15.0005C17.2084 15.001 16.624 15.0005 16.0391 15.0005H15.8193C15.8193 15.1062 15.8193 15.1833 15.8193 15.2604C15.8177 16.1781 15.8292 17.0963 15.811 18.0135C15.7932 18.8932 15.1709 19.6739 14.3313 19.9151C14.2266 19.9453 14.1214 19.9718 14.0162 20.0005V20ZM15.8193 14.1698H16.0401C16.6182 14.1698 17.1964 14.1703 17.7745 14.1698C18.638 14.1687 19.1521 13.6505 19.1526 12.7807C19.1531 10.9255 19.1531 9.07028 19.1526 7.21507C19.1526 6.34684 18.6375 5.8307 17.7714 5.82965C16.9141 5.82861 16.0568 5.82965 15.1995 5.82965C10.8599 5.82965 6.52085 5.82861 2.18127 5.8307C1.37866 5.8307 0.850537 6.36143 0.849495 7.16611C0.846891 9.05361 0.846891 10.9416 0.849495 12.8291C0.850537 13.6437 1.37918 14.1666 2.19689 14.1692C2.78804 14.1713 3.37918 14.1698 3.97033 14.1692C4.03335 14.1692 4.09637 14.1625 4.18179 14.1578C4.18179 14.075 4.18179 14.0052 4.18179 13.9354C4.18179 13.076 4.18127 12.2172 4.18179 11.3578C4.18179 10.9718 4.3245 10.8297 4.71304 10.8297C8.24064 10.8291 11.7682 10.8291 15.2958 10.8297C15.674 10.8297 15.8177 10.9724 15.8182 11.3474C15.8198 12.2067 15.8182 13.0656 15.8182 13.925C15.8182 13.9958 15.8182 14.0661 15.8182 14.1692L15.8193 14.1698ZM5.01043 11.6781V11.8911C5.01043 13.8698 5.00991 15.8489 5.01043 17.8276C5.01043 18.6432 5.53491 19.1682 6.35418 19.1687C8.78387 19.1703 11.2136 19.1703 13.6432 19.1687C14.4719 19.1682 14.9901 18.6437 14.9906 17.8114C14.9912 15.839 14.9906 13.8666 14.9906 11.8948C14.9906 11.8255 14.9906 11.7557 14.9906 11.6781H5.01043ZM14.9906 4.99632C14.9906 4.92236 14.9906 4.86507 14.9906 4.80778C14.9906 3.92236 14.9922 3.03695 14.9906 2.15153C14.9891 1.36976 14.4641 0.83278 13.6849 0.831738C11.2287 0.828092 8.77293 0.828092 6.31668 0.831738C5.53752 0.83278 5.01252 1.36976 5.01095 2.15153C5.00939 3.03695 5.01095 3.92236 5.01095 4.80778C5.01095 4.86976 5.01095 4.93122 5.01095 4.99632H14.9917H14.9906Z" fill="#6F80B1"/>
<path d="M9.5922 15.8297C8.7745 15.8297 7.95679 15.8313 7.13856 15.8287C6.86512 15.8276 6.69793 15.6849 6.68075 15.4526C6.66408 15.2214 6.81668 15.0328 7.04585 15.0031C7.07814 14.999 7.11043 14.9995 7.14325 14.9995C8.77241 14.9995 10.4016 14.9984 12.0307 15C12.3078 15 12.4953 15.175 12.4943 15.4177C12.4927 15.6609 12.3089 15.8271 12.0261 15.8281C11.2146 15.8307 10.4037 15.8292 9.5922 15.8292V15.8297Z" fill="url(#paint0_linear_88_5407)"/>
<path d="M9.57029 17.5C8.7656 17.5 7.96039 17.5005 7.15571 17.5C6.91664 17.5 6.7531 17.3959 6.69529 17.2146C6.61144 16.9521 6.78696 16.6886 7.06769 16.6761C7.33331 16.6641 7.59998 16.6709 7.8656 16.6709C9.22237 16.6709 10.5786 16.6709 11.9354 16.6709C12.0192 16.6709 12.1062 16.6682 12.1875 16.686C12.3797 16.7276 12.5146 16.9307 12.4922 17.1276C12.4687 17.3344 12.3036 17.4932 12.0823 17.4974C11.6995 17.5047 11.3166 17.5 10.9333 17.5C10.4791 17.5 10.0245 17.5 9.57029 17.5Z" fill="url(#paint1_linear_88_5407)"/>
<path d="M7.91406 13.3302C8.17395 13.3302 8.43385 13.3266 8.69374 13.3312C8.9776 13.3359 9.16301 13.501 9.1677 13.7427C9.17239 13.9917 8.98229 14.1661 8.68801 14.1688C8.17499 14.1729 7.66145 14.1729 7.14843 14.1688C6.86041 14.1661 6.68281 14.0042 6.67968 13.7573C6.67604 13.5005 6.85572 13.3365 7.15416 13.3312C7.40729 13.3271 7.66093 13.3302 7.91406 13.3302Z" fill="url(#paint2_linear_88_5407)"/>
</g>
<defs>
<linearGradient id="paint0_linear_88_5407" x1="6.6795" y1="14.9991" x2="6.91228" y2="16.6279" gradientUnits="userSpaceOnUse">
<stop stop-color="#353A5F"/>
<stop offset="1" stop-color="#9EBAF3"/>
</linearGradient>
<linearGradient id="paint1_linear_88_5407" x1="6.67426" y1="16.6689" x2="6.90766" y2="18.3007" gradientUnits="userSpaceOnUse">
<stop stop-color="#353A5F"/>
<stop offset="1" stop-color="#9EBAF3"/>
</linearGradient>
<linearGradient id="paint2_linear_88_5407" x1="6.67963" y1="13.3289" x2="7.19205" y2="14.8413" gradientUnits="userSpaceOnUse">
<stop stop-color="#353A5F"/>
<stop offset="1" stop-color="#9EBAF3"/>
</linearGradient>
<clipPath id="clip0_88_5407">
<rect width="20" height="20" fill="white"/>
</clipPath>
</defs>
</svg>
