<svg width="40" height="40" viewBox="0 0 40 40" fill="none" xmlns="http://www.w3.org/2000/svg">
<path d="M0.0439453 15.7826C0.374612 15.5079 0.662612 15.1266 1.04261 14.9746C11.0466 10.9693 21.0599 6.9866 31.0719 2.99994C31.8639 2.68394 32.1693 2.81727 32.4839 3.6066C34.9173 9.71461 37.352 15.8226 39.7853 21.9306C40.1186 22.7679 39.9933 23.0666 39.1613 23.3986C37.7279 23.9719 36.2973 24.5479 34.8586 25.1079C34.604 25.2066 34.5133 25.3293 34.5146 25.6093C34.5253 29.1039 34.5213 32.5986 34.5213 36.0933C34.5213 36.9199 34.2879 37.1493 33.4506 37.1493C22.6679 37.1493 11.8853 37.1466 1.10128 37.1573C0.621279 37.1573 0.269279 37.0279 0.0452786 36.6013C0.0452786 29.6613 0.0452786 22.7226 0.0452786 15.7826H0.0439453ZM32.9293 35.5666V16.8159H1.62661V35.5679H32.9293V35.5666ZM38.1653 22.1066C35.8359 16.2573 33.5253 10.4559 31.2066 4.63594C22.3919 8.14661 13.6173 11.6399 4.84128 15.1346C6.34795 15.2173 7.83595 15.2199 9.32395 15.2119C9.41061 15.2119 9.49995 15.1346 9.58261 15.0826C9.77728 14.9613 9.95328 14.7959 10.1613 14.7119C12.6519 13.7106 15.1453 12.7173 17.6413 11.7266C20.4613 10.6066 23.2826 9.48794 26.1053 8.37594C26.5693 8.19327 26.8199 8.27194 27.1399 8.64394C28.1746 9.84394 29.4759 10.4159 31.0626 10.3399C31.5786 10.3146 31.8039 10.4426 31.9999 10.9213C32.5426 12.2399 33.0653 13.5679 33.6039 14.8893C33.6533 15.0119 33.7386 15.1893 33.8359 15.2119C34.4226 15.3453 34.5253 15.7493 34.5226 16.2666C34.5133 18.5399 34.5186 20.8133 34.5186 23.0879C34.5186 23.2239 34.5306 23.3586 34.5399 23.5533C35.7653 23.0639 36.9413 22.5959 38.1626 22.1079L38.1653 22.1066ZM13.3226 15.1373C13.3293 15.1573 13.3346 15.1759 13.3413 15.1959H32.0333C31.6413 14.2066 31.2546 13.2613 30.8933 12.3053C30.7879 12.0279 30.6559 11.9079 30.3413 11.8919C28.8573 11.8146 27.5733 11.2399 26.4973 10.2226C26.2866 10.0239 26.1333 10.0239 25.8893 10.1213C22.4586 11.4973 19.0226 12.8626 15.5879 14.2306C14.8333 14.5319 14.0786 14.8346 13.3239 15.1373H13.3226Z" fill="white"/>
<path d="M17.2733 34.0148C14.116 34.0148 10.96 34.0174 7.80265 34.0121C7.23598 34.0121 7.04264 33.8601 6.85731 33.3281C6.33864 31.8468 5.34398 30.8414 3.85465 30.3401C3.41998 30.1934 3.18665 29.9227 3.18798 29.4534C3.19065 27.2841 3.18131 25.1148 3.19331 22.9454C3.19598 22.3734 3.35331 22.2108 3.89865 22.0161C5.34664 21.4988 6.33331 20.5201 6.84664 19.0681C7.04398 18.5081 7.22398 18.3721 7.81465 18.3574C8.24265 18.3468 8.67198 18.3494 9.09998 18.3494C14.9853 18.3508 20.8706 18.3521 26.756 18.3574C27.348 18.3574 27.528 18.5068 27.724 19.0641C28.236 20.5161 29.224 21.4961 30.6693 22.0148C31.2293 22.2161 31.38 22.3894 31.3813 22.9801C31.3893 25.1241 31.388 27.2668 31.3813 29.4108C31.38 29.9574 31.2213 30.1574 30.7173 30.3334C29.22 30.8534 28.2133 31.8601 27.7026 33.3614C27.5266 33.8814 27.344 34.0134 26.7853 34.0134C23.616 34.0148 20.4453 34.0134 17.276 34.0134L17.2733 34.0148ZM17.2986 19.9161C14.388 19.9161 11.4786 19.9161 8.56798 19.9161C8.35998 19.9161 8.19198 19.9054 8.07598 20.1654C7.44665 21.5734 6.41198 22.5948 5.01598 23.2454C4.81198 23.3401 4.73065 23.4468 4.73198 23.6774C4.74265 25.3401 4.74265 27.0028 4.73198 28.6654C4.73065 28.9081 4.80798 29.0267 5.03065 29.1307C6.41198 29.7761 7.43598 30.7921 8.06931 32.1814C8.17464 32.4134 8.30931 32.4654 8.54398 32.4654C14.3773 32.4601 20.2106 32.4588 26.044 32.4654C26.2906 32.4654 26.3986 32.3828 26.5013 32.1628C27.1466 30.7814 28.164 29.7601 29.5533 29.1254C29.7653 29.0294 29.832 28.9161 29.8306 28.6907C29.8213 27.0414 29.82 25.3908 29.8306 23.7414C29.832 23.4761 29.764 23.3374 29.5066 23.2188C28.1466 22.5908 27.1453 21.5841 26.5146 20.2281C26.3933 19.9654 26.2466 19.9121 25.9893 19.9134C23.092 19.9214 20.1946 19.9174 17.2986 19.9174V19.9161Z" fill="white"/>
<path d="M21.9801 26.196C21.9707 28.7946 19.8414 30.912 17.2614 30.8893C14.6627 30.8666 12.5787 28.7493 12.5894 26.148C12.6001 23.5586 14.7294 21.4613 17.3281 21.4786C19.9014 21.496 21.9894 23.6133 21.9801 26.196ZM20.4107 26.176C20.4081 24.4506 19.0187 23.0533 17.2987 23.0453C15.5667 23.0386 14.1534 24.4506 14.1547 26.188C14.1561 27.908 15.5467 29.304 17.2721 29.316C19.0054 29.3293 20.4134 27.92 20.4107 26.1746V26.176Z" fill="white"/>
<path d="M8.66678 27.3507C8.02545 27.3507 7.49878 26.832 7.49345 26.192C7.48812 25.556 8.01078 25.0174 8.64545 25.0054C9.28678 24.992 9.84945 25.5494 9.84278 26.192C9.83612 26.8307 9.30945 27.3507 8.66678 27.352V27.3507ZM9.10945 26.2507C9.10945 26.1934 9.10812 26.1347 9.10678 26.0774C8.95078 25.984 8.78545 25.8067 8.64012 25.8214C8.51078 25.8334 8.32812 26.0467 8.30412 26.1934C8.26545 26.4294 8.45345 26.5987 8.69345 26.5467C8.84678 26.5134 8.97212 26.3534 9.11078 26.2507H9.10945Z" fill="white"/>
<path d="M24.7388 26.1867C24.7361 25.5427 25.2508 25.0134 25.8908 25.004C26.5308 24.9947 27.0948 25.5574 27.0854 26.1947C27.0761 26.832 26.5454 27.3507 25.9028 27.3494C25.2588 27.3494 24.7414 26.832 24.7388 26.1867ZM26.3521 26.252C26.3521 26.196 26.3508 26.14 26.3494 26.084C26.1934 25.988 26.0308 25.8094 25.8814 25.82C25.7548 25.8294 25.5694 26.0427 25.5428 26.1907C25.4988 26.4307 25.6894 26.596 25.9294 26.5454C26.0841 26.512 26.2121 26.3547 26.3521 26.252Z" fill="white"/>
</svg>
