<svg width="40" height="40" viewBox="0 0 40 40" fill="none" xmlns="http://www.w3.org/2000/svg">
<g clip-path="url(#clip0_539_4779)">
<path d="M0.0373441 33.7187V2.21733C0.240011 1.612 0.480011 1.01467 1.02801 0.642668C1.39468 0.394668 1.82134 0.234668 2.22134 0.034668C5.70401 0.034668 9.18668 0.034668 12.6693 0.034668C13.8 0.240001 14.6813 0.885335 15.508 1.63333C15.8547 1.94667 16.24 2.21733 16.5827 2.53467C17.24 3.144 18.008 3.376 18.896 3.37467C24.9253 3.36267 30.9547 3.368 36.9827 3.37067C37.28 3.37067 37.5853 3.37067 37.8733 3.43467C39.16 3.72133 39.9587 4.776 39.9587 6.16667C39.96 14.4053 39.9587 22.6427 39.9587 30.8813C39.9587 31.6733 39.964 32.4667 39.9573 33.2587C39.944 34.796 38.8133 35.944 37.2747 35.968C36.2093 35.984 35.144 35.972 34.0787 35.972C33.9413 35.972 33.8053 35.972 33.616 35.972C33.9453 36.6227 34.0653 37.252 33.9107 37.9067C33.68 38.8827 33.0747 39.5453 32.1173 39.836C31.1 40.144 30.184 39.9053 29.424 39.1653C28.4467 38.2133 27.4827 37.248 26.5293 36.272C26.3107 36.048 26.092 35.9653 25.7813 35.9653C18.18 35.9733 10.5787 35.9707 2.97734 35.9747C2.40934 35.9747 1.86668 35.896 1.36668 35.6067C0.633344 35.1813 0.242677 34.5173 0.0360107 33.7213L0.0373441 33.7187ZM24.996 28.1773C25.4227 28.5987 25.8347 29.012 26.2573 29.416C26.3227 29.4787 26.44 29.5307 26.524 29.5213C27.0827 29.4533 27.492 29.6973 27.8693 30.0787C29.296 31.5187 30.7293 32.952 32.176 34.3733C32.3227 34.5173 32.5707 34.6267 32.7733 34.6307C34.216 34.652 35.6587 34.644 37.1 34.6413C38.1067 34.64 38.6307 34.1093 38.6307 33.096C38.6307 26.144 38.6307 19.192 38.6307 12.2387C38.6307 11.1907 38.128 10.684 37.0787 10.684C25.6947 10.684 14.312 10.684 2.92801 10.684C1.85868 10.684 1.36534 11.1867 1.36534 12.2667C1.36534 19.1933 1.36534 26.12 1.36534 33.0453C1.36534 34.1373 1.86934 34.64 2.96268 34.64C10.1093 34.64 17.2573 34.64 24.404 34.64C24.5267 34.64 24.6507 34.6293 24.7733 34.6227C24.8013 34.5827 24.8307 34.5427 24.8587 34.5027C24.5507 34.2307 24.2333 33.9667 23.936 33.6827C23.6173 33.3787 23.48 32.9987 23.524 32.5533C23.5333 32.4613 23.52 32.3347 23.464 32.2747C23.0467 31.832 22.6147 31.404 22.1947 30.9787C17.4093 34.0373 11.5813 32.592 8.62001 28.5653C5.67334 24.5587 6.10934 18.9733 9.65468 15.5C13.2253 12.0013 18.832 11.672 22.768 14.708C26.7813 17.804 27.96 23.5907 24.9933 28.176L24.996 28.1773ZM8.02268 22.6453C7.94001 27.2147 11.8053 31.2173 16.3853 31.3027C21.2573 31.3933 25.22 27.6453 25.3093 22.864C25.3987 18.064 21.6067 14.0813 16.8773 14.0053C11.9933 13.928 8.11201 17.7147 8.02268 22.6453ZM3.34534 9.26267C3.36801 8.91467 3.35068 8.52 3.42668 8.144C3.68801 6.84533 4.75868 6.02933 6.16934 6.02933C12.7813 6.02667 19.3933 6.02933 26.0053 6.02933C28.6547 6.02933 31.3053 6.02133 33.9547 6.03333C35.4667 6.04 36.5787 7.14933 36.6227 8.65867C36.6293 8.87467 36.6227 9.092 36.6227 9.26C37.328 9.37867 37.9707 9.488 38.6293 9.6C38.6293 8.548 38.5907 7.444 38.6413 6.344C38.6827 5.43067 38.1893 4.68 36.9747 4.68667C30.908 4.71867 24.8427 4.69733 18.776 4.704C17.6507 4.704 16.664 4.37067 15.8107 3.628C15.204 3.09867 14.572 2.59867 13.9587 2.07733C13.3907 1.59467 12.7427 1.36133 11.9933 1.36267C8.95334 1.36933 5.91334 1.36533 2.87468 1.36667C1.88801 1.36667 1.36534 1.89333 1.36401 2.88667C1.36268 5.03067 1.36401 7.17333 1.36401 9.31733C1.36401 9.42933 1.36401 9.54267 1.36401 9.59733C2.03201 9.48667 2.67468 9.37867 3.34401 9.268L3.34534 9.26267ZM4.71868 9.32H35.2507C35.5013 7.98933 34.7693 7.33733 33.64 7.34133C24.5467 7.36933 15.4547 7.35733 6.36134 7.35733C6.20534 7.35733 6.04934 7.352 5.89334 7.364C5.31068 7.412 4.79601 7.872 4.72401 8.44267C4.68934 8.72133 4.71734 9.008 4.71734 9.32H4.71868ZM24.916 32.776C24.968 32.832 25.0467 32.9187 25.128 33C26.396 34.2653 27.664 35.5307 28.9333 36.796C29.42 37.2813 29.8987 37.776 30.3973 38.2507C30.8827 38.7133 31.5747 38.7533 32.112 38.3747C32.592 38.0373 32.776 37.3533 32.5133 36.7693C32.42 36.5627 32.2693 36.3693 32.108 36.208C30.396 34.4867 28.6773 32.7733 26.9587 31.0573C26.8893 30.988 26.812 30.928 26.7827 30.904C26.1493 31.54 25.5387 32.152 24.916 32.776ZM24.3187 31.1947C24.656 30.908 24.9773 30.6347 25.248 30.4053C24.872 30.016 24.5147 29.6453 24.1973 29.3187C23.908 29.6067 23.608 29.9053 23.32 30.1933C23.656 30.5307 24.02 30.896 24.3187 31.196V31.1947Z" fill="white"/>
<path d="M18.072 17.2999C17.94 17.5306 17.876 17.7226 17.7494 17.8506C16.2334 19.3799 14.7107 20.9026 13.184 22.4212C12.8747 22.7279 12.488 22.7359 12.2147 22.4719C11.9334 22.1986 11.94 21.7932 12.2614 21.4719C13.7707 19.9546 15.2867 18.4439 16.8 16.9292C17.0347 16.6946 17.3227 16.5866 17.608 16.7572C17.7947 16.8692 17.9094 17.1012 18.0734 17.2999H18.072Z" fill="white"/>
<path d="M11.9333 19.3946C11.7693 19.2586 11.5133 19.1426 11.4359 18.9533C11.3586 18.7626 11.3746 18.4266 11.4973 18.2826C11.9426 17.7639 12.4386 17.2879 12.9399 16.8213C13.1813 16.5973 13.5586 16.6439 13.7906 16.8653C14.0359 17.0999 14.0906 17.4839 13.8519 17.7413C13.3866 18.2439 12.8933 18.7213 12.3986 19.1946C12.3039 19.2839 12.1453 19.3066 11.9319 19.3959L11.9333 19.3946Z" fill="white"/>
</g>
<defs>
<clipPath id="clip0_539_4779">
<rect width="40" height="40" fill="white"/>
</clipPath>
</defs>
</svg>
