<svg width="20" height="20" viewBox="0 0 20 20" fill="none" xmlns="http://www.w3.org/2000/svg">
<path d="M14.7094 1.66663C14.8372 1.6969 14.9659 1.72359 15.0924 1.75777C16.2969 2.08394 17.1436 3.2457 17.08 4.48428C17.011 5.83093 16.0754 6.91099 14.7962 7.09295C13.9553 7.21242 13.2157 6.96437 12.5887 6.37454C12.5457 6.33418 12.5041 6.29284 12.4618 6.25247C12.4584 6.24889 12.4523 6.24824 12.4323 6.23945C10.9846 7.15805 9.52874 8.08154 8.06553 9.00991C8.30389 9.67103 8.30357 10.3289 8.06553 10.9897C9.52556 11.9161 10.9783 12.8376 12.4393 13.7647C12.5292 13.6817 12.6163 13.5964 12.7082 13.5173C13.5774 12.7696 14.8025 12.6674 15.7776 13.2605C16.7533 13.8539 17.2519 15.0124 17.0263 16.1621C16.8086 17.2715 15.9063 18.1383 14.7975 18.304C14.7673 18.3086 14.739 18.3232 14.7094 18.3333H14.1374C13.8602 18.2493 13.5694 18.1959 13.3079 18.0758C12.0852 17.5146 11.4766 16.1035 11.8806 14.793C11.9225 14.6569 11.9069 14.5922 11.7805 14.5124C10.405 13.6482 9.03486 12.7755 7.66349 11.905C7.63235 11.8852 7.60025 11.8676 7.55607 11.8416C6.89788 12.5245 6.10525 12.8363 5.17024 12.6938C4.49966 12.5915 3.94475 12.2585 3.51729 11.7182C2.63631 10.6036 2.73547 9.02911 3.74262 8.03011C4.71513 7.06528 6.40431 6.93508 7.56147 8.15934C7.73723 8.04801 7.91616 7.93441 8.09508 7.8208C9.33647 7.03338 10.5772 6.24499 11.8202 5.4605C11.9092 5.40451 11.9254 5.35894 11.893 5.25445C11.3794 3.60213 12.3802 1.96447 14.0636 1.69332C14.0891 1.68909 14.1129 1.67607 14.1377 1.66695H14.7097L14.7094 1.66663ZM14.4154 17.3346C15.3466 17.3362 16.104 16.567 16.1084 15.6152C16.1129 14.6563 15.3562 13.875 14.4205 13.8731C13.4897 13.8715 12.7361 14.6377 12.7291 15.5934C12.7218 16.5537 13.4766 17.333 14.4154 17.3343V17.3346ZM14.4139 2.66465C13.4808 2.66693 12.7323 3.43384 12.7291 4.39086C12.726 5.34982 13.4865 6.1291 14.4224 6.12617C15.3508 6.12357 16.1075 5.34787 16.1084 4.39834C16.1094 3.43742 15.352 2.66237 14.4139 2.66465ZM5.58245 8.27034C4.64966 8.26969 3.89931 9.03367 3.89295 9.99133C3.88628 10.9506 4.64363 11.7299 5.58181 11.7296C6.51364 11.7289 7.2694 10.9597 7.2729 10.0083C7.2764 9.04767 6.52095 8.27099 5.58245 8.27034Z" fill="#6F80B1"/>
</svg>
