<svg width="32" height="32" viewBox="0 0 32 32" fill="none" xmlns="http://www.w3.org/2000/svg">
<path d="M27.9992 27.6467C27.8406 27.9151 27.609 28.0043 27.2969 28.0043C19.766 27.9983 12.2359 27.9991 4.70494 27.9991C4.15789 27.9991 4.00098 27.8397 4.00098 27.284C4.00098 19.7634 4.00098 12.2419 4.00098 4.72119C4.00098 4.15527 4.15789 4.00008 4.73066 4.00008C12.2419 4.00008 19.7531 4.00093 27.2644 3.99579C27.5816 3.99579 27.8337 4.0661 28 4.34991V6.27231C27.8783 6.37606 27.7728 6.51754 27.6331 6.57585C27.3347 6.70017 27.0354 6.4841 27.0003 6.13769C26.9814 5.95505 26.99 5.76985 26.9883 5.58549C26.9865 5.41229 26.9883 5.23823 26.9883 5.04016H12.4906V16.5068C12.6157 16.5068 12.7281 16.5068 12.8412 16.5068C15.6365 16.5068 18.4327 16.5068 21.2279 16.5068C21.3445 16.5068 21.462 16.5042 21.5769 16.5197C21.8333 16.5539 21.9979 16.7392 22.0082 16.9887C22.0185 17.2459 21.8504 17.4586 21.5898 17.5014C21.4852 17.5186 21.3771 17.5134 21.2699 17.5143C18.4644 17.5143 15.6597 17.5143 12.8541 17.5143C12.7392 17.5143 12.6243 17.5143 12.4683 17.5143C12.4683 17.6403 12.4683 17.7441 12.4683 17.847C12.4683 18.7687 12.4683 19.6913 12.4683 20.6131C12.4683 20.7194 12.4683 20.8275 12.4537 20.9321C12.4151 21.1996 12.2522 21.3445 11.9847 21.3617C11.7283 21.3779 11.5139 21.2065 11.4702 20.9458C11.4513 20.8317 11.4565 20.7134 11.4565 20.5977C11.4565 15.5302 11.4565 10.4635 11.4565 5.396C11.4565 5.2811 11.4565 5.16535 11.4565 5.02987H5.0282V26.9599H11.441C11.4462 26.875 11.4556 26.7824 11.4565 26.6898C11.4582 26.0296 11.4565 25.3694 11.4573 24.71C11.4573 24.265 11.628 24.0326 11.9538 24.0275C12.2933 24.0215 12.4674 24.253 12.4683 24.7203C12.47 25.3608 12.4683 26.0013 12.4683 26.6427C12.4683 26.7464 12.4683 26.8502 12.4683 26.9711H26.9617V17.5134C26.5338 17.5134 26.1102 17.5134 25.6875 17.5134C25.474 17.5134 25.2605 17.5169 25.047 17.5126C24.6886 17.5049 24.4554 17.2991 24.4605 17.0015C24.4657 16.7143 24.6869 16.5128 25.0316 16.5076C25.5658 16.4999 26.0991 16.5051 26.6333 16.5051C26.737 16.5051 26.8416 16.5051 26.9865 16.5051C26.9865 16.3602 26.9865 16.247 26.9865 16.1338C26.9865 13.474 26.9865 10.8142 26.9865 8.1544C26.9865 8.08667 26.9883 8.01807 26.9865 7.95033C26.9797 7.66909 27.0388 7.42129 27.3432 7.32354C27.6082 7.23865 27.79 7.33983 27.9992 7.66652V27.6442V27.6467Z" fill="#B48E69"/>
</svg>
