<svg width="33" height="32" viewBox="0 0 33 32" fill="none" xmlns="http://www.w3.org/2000/svg">
<g clip-path="url(#clip0_522_4712)">
<path d="M1.233 12.8586V13.8229C1.3898 14.161 1.5626 14.4789 1.9114 14.6698C1.9722 14.704 2.00527 14.8352 2.00633 14.9226C2.01593 15.4645 2.00313 16.0064 2.01273 16.5482C2.09913 21.0922 4.18233 24.3925 8.209 26.4778C8.25167 26.5013 8.29433 26.5248 8.33807 26.608H8.03407C6.68793 26.608 5.34287 26.608 3.9978 26.608C3.889 26.608 3.77487 26.6058 3.67033 26.6336C3.43567 26.6976 3.3194 26.8629 3.3418 27.105C3.36313 27.3333 3.49967 27.4698 3.72687 27.5008C3.82607 27.5146 3.92633 27.5104 4.02767 27.5104H20.4277H20.7189H29.2319C29.3333 27.5104 29.4335 27.5146 29.5327 27.5008C29.7599 27.4698 29.8965 27.3333 29.9178 27.105C29.9402 26.8629 29.8239 26.6976 29.5893 26.6336C29.4847 26.6058 29.3706 26.608 29.2618 26.608C27.9167 26.6069 26.5717 26.6069 25.2255 26.6069H24.9215C24.9653 26.5237 25.0079 26.5002 25.0506 26.4768C28.1727 24.8597 30.1269 22.512 30.8863 19.4208H30.8949C31.2021 18.2197 31.2757 16.9877 31.2373 15.7397C31.233 15.6298 31.2415 15.5178 31.2351 15.408C31.2127 15.0272 31.2213 14.7114 31.6373 14.4629C32.1855 14.1344 32.1621 13.2234 31.9935 12.6869C31.8335 12.1696 31.3749 11.8826 30.7434 11.8496C30.7381 11.8485 30.7338 11.8485 30.7285 11.8485C30.689 11.8464 30.6485 11.841 30.5685 11.8336L29.6586 11.8378C29.6586 11.8378 25.2703 11.8506 25.2138 11.8506C24.9791 11.5061 24.5749 11.3333 24.001 11.3322C22.1738 11.3312 20.3455 11.3312 18.5194 11.3322C17.9477 11.3333 17.5466 11.505 17.3141 11.8506C17.2981 11.8496 17.281 11.8496 17.2629 11.8496C14.993 11.8496 9.86233 11.8538 7.07513 11.8517C7.06447 10.8821 7.06767 9.91251 7.0698 8.94291C7.0698 8.55251 7.06233 8.15998 7.0826 7.76958C7.09753 7.47518 7.281 7.28744 7.56367 7.22664C7.8474 7.16584 8.09273 7.26291 8.225 7.52318C8.29967 7.66824 8.3274 7.84851 8.3306 8.01491C8.34127 8.71678 8.3306 9.41971 8.337 10.1226C8.34233 10.6506 8.60793 10.9152 9.13913 10.928C9.49967 10.9365 9.86127 10.9365 10.2229 10.929C10.7647 10.9173 11.0399 10.6485 11.0463 10.1088C11.0549 9.35571 11.0677 8.60158 11.0442 7.84958C10.9653 5.39304 8.609 3.82718 6.40847 4.75838C5.04847 5.33331 4.28153 6.66238 4.35513 8.31891V8.32104C4.35193 8.98984 4.35833 11.3781 4.34873 11.8474C3.80793 11.8464 3.29167 11.8442 2.8074 11.841C2.02873 11.8368 1.4922 12.1077 1.23193 12.8576L1.233 12.8586ZM6.15353 11.8517C5.85167 11.8517 5.553 11.8517 5.25967 11.8506C5.25967 11.1712 5.26287 8.82131 5.2586 8.30931V8.30718C5.2682 8.07891 5.2618 7.84744 5.27993 7.61811C5.37913 6.40638 6.43727 5.42291 7.65327 5.40584C8.9162 5.38664 10.0085 6.30611 10.1055 7.54451C10.1685 8.34131 10.1279 9.14771 10.1311 9.94984C10.1311 9.96584 10.1098 9.98078 10.0927 10.0085H9.24047V9.66184C9.24047 9.07944 9.24793 8.49704 9.23727 7.91464C9.22447 7.17971 8.84047 6.61651 8.21753 6.39144C7.20527 6.02664 6.18233 6.75838 6.16953 7.87838C6.15247 9.23304 6.16633 10.4714 6.1642 11.6138C6.1642 11.6949 6.15887 11.7749 6.15353 11.8517ZM24.5439 19.4218C24.5429 19.9797 24.5418 20.3285 24.5418 20.3285H18.0074L17.9839 20.2357C17.9839 19.8474 17.9861 17.824 17.985 16.561V16.5237C17.985 16.481 17.985 16.4405 17.9839 16.4C17.985 16.0458 17.9839 15.7674 17.9839 15.6298V15.4229C17.9839 15.4229 17.9839 15.4154 17.9839 15.4122C17.985 14.529 17.9839 13.6469 17.985 12.7637C17.9861 12.3285 18.0767 12.2378 18.5194 12.2378C20.3573 12.2357 22.1941 12.2357 24.0319 12.2378C24.4319 12.2378 24.5514 12.3456 24.5525 12.7232C24.5525 14.528 24.5471 17.8293 24.5439 19.4218ZM30.7007 13.889C30.0799 13.9104 29.457 13.8976 28.8351 13.8976H25.4581V12.8021C25.4581 12.7861 25.4581 12.769 25.457 12.753C27.4453 12.7552 28.7295 12.7541 30.5631 12.7541C31.1157 12.7541 31.3941 13.1978 31.1199 13.6842C31.057 13.7984 30.8479 13.8837 30.7007 13.889ZM2.96633 14.801H4.62393C4.71353 14.801 4.80633 14.8042 4.897 14.7989C4.89807 14.7989 4.89913 14.8 4.9002 14.8C5.99247 14.8042 9.14553 14.801 10.2378 14.801C11.233 14.801 15.8666 14.8021 17.0794 14.801C17.0794 14.9856 17.0794 15.169 17.0805 15.3536C17.0634 15.425 17.0783 15.5221 17.0805 15.6053V16.4181C17.0794 18.6048 17.0794 18.7786 17.0805 20.3818C17.0805 21.041 17.2842 21.249 17.9413 21.2501H24.5962C25.2426 21.249 25.4581 21.0293 25.4581 20.3754V14.8021C26.1557 14.8053 26.417 14.801 26.6538 14.801H30.2666C30.2943 14.8362 30.3167 14.8512 30.3167 14.8661C30.3573 16.401 30.4031 17.9402 29.9605 19.4218C28.8138 23.5104 25.0453 26.529 20.6901 26.5941C20.6026 26.5952 20.5151 26.5962 20.4277 26.5973V26.6037C20.3583 26.6037 20.289 26.6037 20.2197 26.6037C17.6703 26.608 15.1199 26.6304 12.5695 26.593C7.617 26.5194 3.42393 22.6261 2.97913 17.6842C2.89487 16.7424 2.96633 15.7866 2.96633 14.8V14.801ZM2.79887 12.7541H17.0805V12.7829C17.0794 13.1541 17.0794 13.5274 17.0794 13.8986C14.7669 13.8976 7.0346 13.8976 4.977 13.8986C4.95033 13.8986 4.92687 13.9008 4.90233 13.9029C4.9002 13.9029 4.89807 13.9029 4.89593 13.9029C4.72847 13.8922 4.5578 13.8997 4.38927 13.8986C3.79727 13.8976 3.20527 13.9008 2.6122 13.8976C2.25487 13.8976 2.14393 13.7824 2.13647 13.4325C2.12473 12.8298 2.19727 12.7552 2.79887 12.7552V12.7541Z" fill="#B48E69"/>
</g>
<defs>
<clipPath id="clip0_522_4712">
<rect width="32" height="32" fill="white" transform="translate(0.666626)"/>
</clipPath>
</defs>
</svg>
