<svg width="33" height="32" viewBox="0 0 33 32" fill="none" xmlns="http://www.w3.org/2000/svg">
<g clip-path="url(#clip0_522_4708)">
<path d="M30.8068 21.4827C31.4724 21.5275 31.8052 21.8702 31.8052 22.5109C31.8052 22.9376 31.8052 23.3653 31.8052 23.792C31.8052 24.3477 31.658 24.496 31.1066 24.4992C31.0233 24.4992 30.9402 24.4992 30.8079 24.4992C30.8079 24.6795 30.8079 24.8512 30.8079 25.0229C30.8079 25.4816 30.8111 25.9392 30.8079 26.3979C30.8047 26.8096 30.6266 26.9941 30.2234 26.9984C29.7871 27.0037 29.3498 27.0027 28.9135 26.9984C28.5401 26.9952 28.3844 26.8704 28.3097 26.5067C28.1743 25.8549 28.0452 25.2021 27.9087 24.5248H4.76522C4.63295 25.1733 4.50282 25.8229 4.36735 26.4725C4.28202 26.8811 4.14228 26.9952 3.72948 26.9973C3.30282 26.9995 2.87722 27.0016 2.45055 26.9973C2.04522 26.9931 1.86602 26.8107 1.86388 26.4C1.85962 25.7771 1.86388 25.1552 1.86388 24.4981C1.68575 24.4981 1.53215 24.5045 1.38068 24.4971C1.06708 24.48 0.874015 24.2976 0.869749 23.9829C0.860149 23.3269 0.860149 22.6709 0.869749 22.0139C0.874015 21.6992 1.06708 21.5179 1.38068 21.5008C1.52575 21.4933 1.67082 21.4997 1.86388 21.4997C1.86388 21.3792 1.86388 21.2693 1.86388 21.1595C1.86388 20.0448 1.90335 18.9291 1.85322 17.8165C1.80202 16.6997 2.39402 15.6277 3.86068 15.4741C3.86068 15.3547 3.86068 15.2309 3.86068 15.1083C3.86068 12.4629 3.86068 9.81655 3.86068 7.17121C3.86068 5.81975 4.68522 4.99948 6.04202 4.99841C12.9028 4.99841 19.7647 4.99841 26.6255 4.99841C27.9994 4.99841 28.8111 5.81548 28.8111 7.19788C28.8111 9.84321 28.8111 12.4896 28.8111 15.1349V15.4251C29.161 15.5435 29.4938 15.6053 29.7775 15.7611C30.4506 16.1301 30.7962 16.7296 30.8036 17.4987C30.8154 18.7072 30.8068 19.9147 30.8068 21.1232C30.8068 21.2363 30.8068 21.3483 30.8068 21.4805V21.4827ZM15.8361 15.4837H16.8345C16.8345 14.8672 16.8345 14.2656 16.8345 13.6651C16.8367 12.3307 17.6623 11.5008 18.9914 11.4997C20.8623 11.4987 22.7332 11.4997 24.6041 11.4997C26.0036 11.4997 26.8143 12.3083 26.8154 13.7045C26.8154 14.2944 26.8154 14.8843 26.8154 15.4784H27.8138V15.1797C27.8138 12.5035 27.8138 9.82721 27.8138 7.15095C27.8138 6.39041 27.4223 6.00001 26.6607 6.00001C19.7807 6.00001 12.8996 6.00001 6.01962 6.00001C5.24095 6.00001 4.85908 6.38721 4.85908 7.17335C4.85908 9.83895 4.85908 12.5056 4.85908 15.1712C4.85908 15.2725 4.86762 15.3728 4.87188 15.4784H5.85642C5.85642 14.8448 5.85535 14.2315 5.85642 13.6181C5.85962 12.3477 6.70122 11.5019 7.96522 11.4997C9.87775 11.4976 11.7903 11.4976 13.7028 11.4997C14.9935 11.4997 15.8329 12.3371 15.8361 13.6256C15.8383 14.2379 15.8361 14.8501 15.8361 15.4837ZM2.86335 21.4773H29.8084C29.8084 20.2069 29.8084 18.9589 29.8084 17.7099C29.8084 16.8651 29.4394 16.4992 28.5903 16.4992C20.4207 16.4992 12.25 16.4992 4.08042 16.4992C3.98655 16.4992 3.89268 16.496 3.79988 16.5013C3.30282 16.5355 2.87508 16.9312 2.86975 17.4272C2.85375 18.7691 2.86442 20.112 2.86442 21.4763L2.86335 21.4773ZM30.7919 22.5216H1.87775V23.4827H30.7929V22.5216H30.7919ZM6.85588 15.4773H14.8345C14.8345 14.7797 14.8505 14.1035 14.8292 13.4293C14.8132 12.9184 14.3855 12.5067 13.8692 12.5045C11.8532 12.496 9.83722 12.496 7.82228 12.5045C7.30708 12.5067 6.87615 12.9205 6.86122 13.4293C6.84095 14.1045 6.85588 14.7808 6.85588 15.4784V15.4773ZM25.8138 15.488C25.8138 14.7797 25.8298 14.1035 25.8084 13.4283C25.7924 12.9173 25.3636 12.5056 24.8474 12.5035C22.8314 12.4949 20.8153 12.496 18.8004 12.5035C18.3332 12.5056 17.8916 12.848 17.8617 13.3056C17.8148 14.0267 17.849 14.7531 17.849 15.488H25.8127H25.8138ZM2.88362 24.5109V25.9755H3.45535C3.55348 25.4784 3.64628 25.0037 3.74335 24.5109H2.88362ZM29.7849 25.9883V24.5131H28.9263C28.9935 24.8533 29.0585 25.1755 29.1204 25.4976C29.1866 25.8439 29.4081 26.0071 29.7849 25.9872V25.9883Z" fill="#B48E69"/>
</g>
<defs>
<clipPath id="clip0_522_4708">
<rect width="32" height="32" fill="white" transform="translate(0.333252)"/>
</clipPath>
</defs>
</svg>
