<svg width="32" height="32" viewBox="0 0 32 32" fill="none" xmlns="http://www.w3.org/2000/svg">
<path d="M5.58461 28.9993C5.27105 28.8699 5.15727 28.6362 5.16074 28.2992C5.17203 27.1909 5.16508 26.0817 5.16508 24.9734C5.16508 24.8822 5.16508 24.791 5.16508 24.6685C5.00526 24.6685 4.87237 24.6711 4.73948 24.6685C4.3295 24.659 4.08109 24.4496 4.08456 24.1187C4.08803 23.7878 4.33558 23.5836 4.7499 23.5793C5.23891 23.575 5.72793 23.5784 6.23084 23.5784V17.4844C6.10837 17.5695 6.00675 17.6399 5.90599 17.7103C5.24065 18.1758 4.57705 18.644 3.90824 19.1043C3.53996 19.3571 3.17689 19.2589 3.03617 18.8837C2.95105 18.657 3.01185 18.4624 3.1847 18.3113C3.33671 18.1784 3.50695 18.0646 3.67285 17.9482C10.6789 13.0433 17.6849 8.13928 24.6918 3.23696C24.7882 3.16922 24.8864 3.1006 24.9932 3.05109C25.2338 2.94078 25.4979 3.01721 25.6447 3.22654C25.7941 3.44108 25.7906 3.7199 25.5882 3.89535C25.3467 4.10555 25.0688 4.27232 24.8195 4.47383C24.7465 4.5329 24.677 4.64668 24.6762 4.73615C24.6684 6.63228 24.6701 8.52754 24.671 10.4237C24.671 10.4645 24.6788 10.5044 24.6857 10.5739C24.7865 10.5739 24.8768 10.5739 24.9672 10.5739C26.0755 10.5739 27.1847 10.5765 28.293 10.5722C28.6291 10.5705 28.8845 10.679 29 11.0178V28.5928L28.5935 28.9993H5.58461ZM27.9091 11.6849H23.5792C23.5792 11.7952 23.5792 11.8864 23.5792 11.9776C23.5792 12.7141 23.5792 13.4507 23.5792 14.1873C23.5792 14.7319 23.3941 14.9151 22.8469 14.916C21.7464 14.9169 20.6459 14.916 19.5454 14.916C19.4551 14.916 19.3648 14.916 19.2492 14.916V15.1905C19.2492 15.9357 19.2492 16.6801 19.2492 17.4254C19.2492 17.983 19.0642 18.1663 18.5005 18.1663C17.4 18.1663 16.2995 18.1663 15.199 18.1663C15.1095 18.1663 15.021 18.1741 14.9193 18.1784C14.9193 19.0296 14.9193 19.8496 14.9193 20.6704C14.9193 21.2263 14.7291 21.4156 14.1715 21.4165C13.0797 21.4174 11.987 21.4165 10.8952 21.4165C10.797 21.4165 10.6989 21.4165 10.5773 21.4165C10.5773 21.5451 10.5773 21.6363 10.5773 21.7275C10.5773 22.464 10.5773 23.2006 10.5773 23.9372C10.5773 24.4809 10.3914 24.6659 9.84504 24.6668C8.74454 24.6676 7.64403 24.6668 6.54353 24.6668C6.4532 24.6668 6.362 24.6668 6.26558 24.6668V27.8944H27.9099V11.6849H27.9091ZM9.48892 21.4408C9.24919 21.4209 9.02856 21.42 8.81576 21.38C8.56734 21.3331 8.41708 21.1134 8.42229 20.8598C8.4275 20.6192 8.5795 20.4176 8.81663 20.3647C8.9391 20.3369 9.06765 20.329 9.1936 20.329C10.632 20.3264 12.0712 20.3273 13.5096 20.3273C13.6078 20.3273 13.7059 20.3273 13.8041 20.3273V18.188C13.5704 18.1689 13.3576 18.168 13.1518 18.1298C12.912 18.0846 12.7453 17.8492 12.7513 17.6112C12.7574 17.3802 12.9207 17.1656 13.1483 17.1135C13.2707 17.0857 13.3993 17.0779 13.5252 17.077C14.9636 17.0744 16.4029 17.0753 17.8413 17.0753H18.147V14.916C18.0332 14.916 17.9411 14.916 17.8491 14.916C17.347 14.9143 17.0882 14.7293 17.0882 14.3705C17.0882 14.0135 17.3496 13.8251 17.8491 13.8251C19.2961 13.8251 20.7432 13.8251 22.1903 13.8251C22.2876 13.8251 22.3848 13.8251 22.4856 13.8251V11.6657C22.3649 11.6657 22.2572 11.6701 22.1495 11.6649C22.04 11.6588 21.9288 11.6545 21.8229 11.6301C21.584 11.5763 21.432 11.38 21.4251 11.1376C21.4181 10.8866 21.571 10.6695 21.8142 10.613C21.9358 10.5844 22.0652 10.5774 22.1912 10.5765C22.6454 10.5722 23.0997 10.5748 23.5557 10.5748V5.36327C23.4784 5.41365 23.4289 5.44318 23.382 5.47619C18.0879 9.18158 12.7939 12.8878 7.49724 16.5898C7.36087 16.6853 7.32092 16.7861 7.32092 16.945C7.32526 19.0696 7.32439 21.1933 7.32439 23.3179V23.5585H9.48805V21.4417L9.48892 21.4408Z" fill="#B48E69"/>
</svg>
