<svg width="18" height="15" viewBox="0 0 18 15" fill="none" xmlns="http://www.w3.org/2000/svg">
<path d="M0.317934 7.19245L4.4655 8.67407L6.07086 13.6155C6.17358 13.932 6.57792 14.049 6.8463 13.839L9.15823 12.0351C9.40057 11.8461 9.74575 11.8366 9.99901 12.0126L14.1689 14.9102C14.456 15.1099 14.8627 14.9594 14.9347 14.6273L17.9894 0.563905C18.068 0.201194 17.6956 -0.10139 17.3348 0.0321859L0.313074 6.31708C-0.106987 6.47214 -0.103327 7.04136 0.317934 7.19245ZM5.81214 7.88536L13.918 3.10701C14.0637 3.02139 14.2136 3.20992 14.0885 3.32099L7.39878 9.27275C7.16364 9.48224 7.01196 9.7626 6.969 10.0669L6.74112 11.6833C6.71094 11.8991 6.3942 11.9205 6.33198 11.7116L5.45556 8.76417C5.35518 8.42799 5.50146 8.0689 5.81214 7.88536Z" fill="url(#paint0_linear_88_2672)" fill-opacity="0.65"/>
<defs>
<linearGradient id="paint0_linear_88_2672" x1="-0.424511" y1="3.41656" x2="42.0552" y2="7.61448" gradientUnits="userSpaceOnUse">
<stop stop-color="#A96F44"/>
<stop offset="1" stop-color="#F2ECB6"/>
</linearGradient>
</defs>
</svg>
