<svg width="22" height="22" viewBox="0 0 22 22" fill="none" xmlns="http://www.w3.org/2000/svg">
<path d="M18.0861 3.91951C16.206 2.03785 13.7057 1.00106 11.0417 1C5.55293 1 1.08569 5.46552 1.0835 10.9544C1.08279 12.7089 1.54134 14.4216 2.41276 15.9312L1 21.0899L6.27899 19.7056C7.73351 20.4986 9.37108 20.9166 11.0378 20.9173H11.0419C16.5301 20.9173 20.9978 16.4512 21 10.9623C21.0011 8.30235 19.9662 5.80117 18.0861 3.91951ZM11.0419 19.236H11.0385C9.55329 19.2354 8.0966 18.8365 6.82581 18.0827L6.52355 17.9034L3.39092 18.7248L4.22708 15.6715L4.03023 15.3585C3.20171 14.0411 2.76413 12.5184 2.76478 10.955C2.76657 6.39294 6.47959 2.68134 11.0451 2.68134C13.2558 2.68218 15.3339 3.544 16.8966 5.10794C18.4593 6.67188 19.3194 8.7508 19.3186 10.9617C19.3168 15.5242 15.6039 19.236 11.0419 19.236ZM15.5819 13.039C15.333 12.9145 14.1097 12.3127 13.8816 12.2297C13.6536 12.1467 13.4877 12.1052 13.3218 12.3543C13.156 12.6033 12.6791 13.1636 12.5339 13.3295C12.3888 13.4956 12.2436 13.5163 11.9948 13.3918C11.746 13.2673 10.9443 13.0046 9.99388 12.1572C9.25423 11.4977 8.75482 10.6831 8.60968 10.434C8.46454 10.185 8.59425 10.0504 8.7188 9.92638C8.83072 9.81495 8.96761 9.63587 9.09203 9.49062C9.21643 9.3454 9.25792 9.24159 9.34084 9.0756C9.4238 8.90958 9.38231 8.76431 9.3201 8.63981C9.25792 8.51531 8.76027 7.29097 8.55292 6.79294C8.35097 6.3079 8.14579 6.37353 7.99306 6.36591C7.84809 6.35869 7.68204 6.35717 7.51619 6.35717C7.35033 6.35717 7.08075 6.41941 6.85268 6.66844C6.62462 6.91747 5.98183 7.51925 5.98183 8.74356C5.98183 9.96787 6.8734 11.1507 6.99782 11.3167C7.12224 11.4827 8.75235 13.9952 11.2484 15.0726C11.8421 15.3289 12.3055 15.482 12.6669 15.5966C13.2629 15.7859 13.8054 15.7592 14.2341 15.6952C14.7122 15.6238 15.7062 15.0934 15.9136 14.5124C16.121 13.9313 16.121 13.4333 16.0588 13.3296C15.9966 13.2258 15.8307 13.1636 15.5819 13.039Z" fill="url(#paint0_linear_88_2668)" fill-opacity="0.65"/>
<defs>
<linearGradient id="paint0_linear_88_2668" x1="0.528321" y1="5.57589" x2="47.8707" y2="9.45716" gradientUnits="userSpaceOnUse">
<stop stop-color="#A96F44"/>
<stop offset="1" stop-color="#F2ECB6"/>
</linearGradient>
</defs>
</svg>
